<svg width="277" height="86" viewBox="0 0 277 86" fill="none" xmlns="http://www.w3.org/2000/svg">
<g clip-path="url(#clip0)">
<path d="M266.693 85H8.69326C4.51554 85 1.09326 81.5777 1.09326 77.4V8.6C1.09326 4.42229 4.51555 1 8.69326 1H266.693C270.871 1 274.293 4.42229 274.293 8.6V77.4C274.293 81.5777 270.871 85 266.693 85Z" stroke="black" stroke-width="2"/>
<path fill-rule="evenodd" clip-rule="evenodd" d="M21.1633 42.1399V19.565C21.1633 18.275 22.2383 17.2 23.3133 17.2C24.3883 17.2 24.8183 17.4149 25.4633 17.8449L66.9583 40.635C67.8183 41.065 68.2483 41.71 68.2483 42.355C68.2483 43 67.8183 43.645 66.9583 44.075L25.4633 66.8649C25.0333 67.0799 24.3883 67.51 23.3133 67.51C22.2383 67.51 21.1633 66.435 21.1633 65.145V42.1399Z" fill="url(#paint0_linear)"/>
<path fill-rule="evenodd" clip-rule="evenodd" d="M48.0383 42.355L22.8833 17.2C23.0983 17.2 23.0983 17.2 23.3133 17.2C24.3883 17.2 24.8183 17.4149 25.4633 17.8449L55.9933 34.6149L48.0383 42.355Z" fill="url(#paint1_linear)"/>
<path fill-rule="evenodd" clip-rule="evenodd" d="M55.7782 49.8801L48.0383 42.1401L55.9933 34.1851L66.9583 40.2051C67.8183 40.6351 68.2483 41.2801 68.2483 41.9251C68.2483 42.5701 67.8183 43.2151 66.9583 43.6451L55.7782 49.8801Z" fill="url(#paint2_linear)"/>
<path fill-rule="evenodd" clip-rule="evenodd" d="M23.0981 67.08L48.0381 42.14L55.7781 49.88L25.4631 66.435C24.8181 66.865 24.3881 67.08 23.0981 67.08C23.3131 67.08 23.3131 67.08 23.0981 67.08Z" fill="url(#paint3_linear)"/>
<path fill-rule="evenodd" clip-rule="evenodd" d="M152.958 72.885C151.883 72.025 151.023 70.52 150.593 69.66L154.033 68.155C154.248 68.585 154.678 69.23 155.108 69.875C155.968 70.735 157.258 71.595 158.548 71.595C159.838 71.595 161.343 70.95 162.203 69.875C162.848 68.8 163.278 67.725 163.278 66.22V64.93C160.698 68.155 155.323 67.725 152.313 64.285C149.088 60.845 149.088 55.04 152.313 51.6C155.538 48.375 160.268 47.945 163.063 50.955V49.45H166.718V65.575C166.718 69.66 165.213 72.025 163.278 73.53C161.988 74.605 160.053 75.035 158.333 75.035C156.398 74.82 154.463 74.175 152.958 72.885ZM243.043 73.7449L246.698 65.145L240.248 50.31H243.903L248.418 60.8449L252.933 50.31H256.588L246.698 73.7449H243.043ZM225.628 65.575C224.553 64.5 224.123 62.9949 224.123 61.4899C224.123 60.1999 224.553 58.91 225.413 58.05C226.918 56.545 229.068 55.9 231.433 55.9C232.938 55.9 234.228 56.115 235.303 56.76C235.303 54.18 233.153 53.105 231.433 53.105C229.928 53.105 228.423 53.965 227.778 55.4699L224.553 54.18C225.198 52.675 226.918 49.88 231.218 49.88C233.368 49.88 235.518 50.525 236.808 52.03C238.098 53.535 238.528 55.2549 238.528 57.62V66.65H234.873V65.145C234.443 65.79 233.583 66.22 232.938 66.65C232.078 67.08 231.003 67.295 229.928 67.295C228.638 67.08 226.703 66.65 225.628 65.575ZM111.033 57.835C111.033 53.535 114.258 48.805 120.063 48.805C125.653 48.805 129.093 53.535 129.093 57.835C129.093 62.135 125.868 66.8649 120.063 66.8649C114.258 66.8649 111.033 62.135 111.033 57.835ZM130.383 57.835C130.383 53.535 133.608 48.805 139.413 48.805C145.003 48.805 148.443 53.535 148.443 57.835C148.443 62.135 145.218 66.8649 139.413 66.8649C133.823 66.8649 130.383 62.135 130.383 57.835ZM86.7384 62.5649C81.3634 57.1899 81.5783 48.375 86.9533 42.785C89.7483 39.99 93.1883 38.7 96.8433 38.7C100.283 38.7 103.723 39.9899 106.303 42.5699L103.723 45.3649C99.8533 41.4949 93.6184 41.71 89.9634 45.58C86.0934 49.665 86.0934 55.9 89.9634 59.985C93.8334 64.07 100.283 64.285 104.153 60.2C105.443 58.91 105.873 57.19 106.088 55.4699H97.0584V51.6H109.743C109.958 52.46 109.958 53.535 109.958 54.61C109.958 57.835 108.668 61.06 106.518 63.21C104.153 65.575 100.713 66.8649 97.2733 66.8649C93.4033 66.65 89.5334 65.3599 86.7384 62.5649ZM177.683 64.07C174.458 60.6299 174.458 54.825 177.683 51.17C180.908 47.7299 186.283 47.7299 189.293 51.17C190.368 52.245 191.013 53.75 191.658 55.255L179.833 60.2C180.478 61.705 181.983 62.995 184.133 62.995C186.068 62.995 187.358 62.3499 188.648 60.4149L191.873 62.5649C191.443 62.9949 191.013 63.425 190.798 63.855C187.143 67.51 180.908 67.51 177.683 64.07ZM200.043 66.65V42.785H207.783C212.298 42.785 215.953 46.01 215.953 49.88C215.953 53.75 212.728 56.975 208.643 56.975H203.913V66.435H200.043V66.65ZM218.103 66.65V42.785H221.758V66.65H218.103ZM169.513 66.22V39.56H173.383V66.22H169.513ZM235.088 59.555C234.228 58.91 232.938 58.695 231.648 58.695C229.068 58.695 227.563 59.9849 227.563 61.4899C227.563 62.9949 229.068 63.855 230.573 63.855C232.723 63.855 235.088 62.135 235.088 59.555ZM125.008 57.835C125.008 55.255 123.288 52.46 120.063 52.46C116.838 52.46 115.118 55.255 115.118 57.835C115.118 60.415 116.838 63.21 120.063 63.21C123.073 63.21 125.008 60.415 125.008 57.835ZM144.358 57.835C144.358 55.255 142.638 52.46 139.413 52.46C136.188 52.46 134.468 55.255 134.468 57.835C134.468 60.415 136.188 63.21 139.413 63.21C142.638 63.21 144.358 60.415 144.358 57.835ZM163.493 59.3399C163.493 59.1249 163.493 58.91 163.708 58.695C163.708 58.4799 163.708 58.05 163.708 57.835C163.708 57.62 163.708 57.19 163.708 56.975V56.76C163.708 56.545 163.493 56.115 163.493 55.9C162.848 53.75 160.913 52.245 158.978 52.245C156.398 52.245 154.248 54.825 154.248 57.62C154.248 60.6299 156.398 62.995 159.193 62.995C160.913 63.21 162.633 61.7049 163.493 59.3399ZM179.188 57.405L187.143 53.9649C186.283 52.4599 184.993 52.03 183.918 52.03C180.693 52.245 178.758 55.685 179.188 57.405ZM212.083 50.0949C212.083 47.945 210.363 46.4399 207.998 46.4399H203.698V53.9649H208.213C210.363 53.9649 212.083 52.245 212.083 50.0949Z" fill="black"/>
<path fill-rule="evenodd" clip-rule="evenodd" d="M245.838 69.4449H245.623V69.2299H245.838H245.623V69.4449H245.838Z" fill="white"/>
<path fill-rule="evenodd" clip-rule="evenodd" d="M246.268 69.4449C246.268 69.2299 246.268 69.2299 246.268 69.4449C246.053 69.2299 246.053 69.2299 246.268 69.4449C246.053 69.4449 246.053 69.4449 246.268 69.4449ZM246.268 69.2299C246.268 69.4449 246.268 69.4449 246.268 69.2299C246.268 69.4449 246.053 69.4449 246.268 69.2299C246.053 69.2299 246.268 69.2299 246.268 69.2299Z" fill="white"/>
<path fill-rule="evenodd" clip-rule="evenodd" d="M246.483 69.2299H246.268H246.483V69.4449V69.2299Z" fill="white"/>
<path d="M83.7283 21.7149C83.7283 17.8449 86.5233 15.4799 89.9633 15.4799C92.3283 15.4799 93.8333 16.5549 94.9083 18.0599L93.1883 19.1349C92.5433 18.2749 91.4683 17.6299 89.9633 17.6299C87.5983 17.6299 85.8783 19.3499 85.8783 21.9299C85.8783 24.5099 87.5983 26.2299 89.9633 26.2299C91.2533 26.2299 92.3283 25.5849 92.7583 25.1549V23.2199H89.3183V21.2849H95.1233V25.7999C94.0483 27.0899 92.3283 27.9499 90.1783 27.9499C86.5233 27.9499 83.7283 25.3699 83.7283 21.7149Z" fill="black"/>
<path d="M97.7031 27.7352V15.6952H105.873V17.6302H99.6381V20.6402H105.658V22.5752H99.6381V26.0152H105.873V27.9502L97.7031 27.7352Z" fill="black"/>
<path d="M111.893 27.7352V17.6302H108.238V15.6952H117.698V17.6302H114.043V27.7352H111.893Z" fill="black"/>
<path d="M125.008 27.7352V15.6952H127.158V27.7352H125.008Z" fill="black"/>
<path d="M132.963 27.7352V17.6302H129.308V15.6952H138.768V17.6302H135.113V27.7352H132.963Z" fill="black"/>
<path d="M145.648 21.7149C145.648 18.0599 148.228 15.4799 151.883 15.4799C155.538 15.4799 158.118 18.0599 158.118 21.7149C158.118 25.3699 155.538 27.9499 151.883 27.9499C148.228 27.9499 145.648 25.1549 145.648 21.7149ZM155.753 21.7149C155.753 19.1349 154.248 17.4149 151.668 17.4149C149.303 17.4149 147.583 19.3499 147.583 21.7149C147.583 24.2949 149.088 26.0149 151.668 26.0149C154.248 26.0149 155.753 24.0799 155.753 21.7149Z" fill="black"/>
<path d="M168.868 27.7352L162.633 19.1352V27.7352H160.483V15.6952H162.633L168.868 24.0802V15.6952H171.018V27.7352H168.868Z" fill="black"/>
</g>
<defs>
<linearGradient id="paint0_linear" x1="35.0682" y1="14.1332" x2="47.1043" y2="63.5636" gradientUnits="userSpaceOnUse">
<stop stop-color="#006884"/>
<stop offset="1" stop-color="#8AD1D0"/>
</linearGradient>
<linearGradient id="paint1_linear" x1="20.3908" y1="21.1641" x2="53.1912" y2="38.8962" gradientUnits="userSpaceOnUse">
<stop stop-color="#24BBB6"/>
<stop offset="1" stop-color="#DBE692"/>
</linearGradient>
<linearGradient id="paint2_linear" x1="58.1312" y1="50.7833" x2="58.1312" y2="33.6942" gradientUnits="userSpaceOnUse">
<stop stop-color="#FCC072"/>
<stop offset="1" stop-color="#F58A5B"/>
</linearGradient>
<linearGradient id="paint3_linear" x1="26.7417" y1="71.5286" x2="52.6528" y2="45.1584" gradientUnits="userSpaceOnUse">
<stop stop-color="#712B8F"/>
<stop offset="1" stop-color="#EA1D27"/>
</linearGradient>
<clipPath id="clip0">
<rect x="0.0932617" width="276" height="86" fill="white"/>
</clipPath>
</defs>
</svg>
