<svg width="251" height="87" viewBox="0 0 251 87" fill="none" xmlns="http://www.w3.org/2000/svg">
<path d="M241.358 85.6433H9.01009C4.87074 85.6433 1.25269 81.6626 1.25269 76.4674V10.8042C1.25269 5.60902 4.86885 1.64331 9.01009 1.64331H241.358C245.516 1.64331 249.253 5.63044 249.253 10.8042V76.4674C249.253 81.6412 245.514 85.6433 241.358 85.6433Z" stroke="black" stroke-width="2"/>
<path d="M56.0453 43.0672C55.9916 37.1334 60.9323 34.2466 61.1582 34.1122C58.3601 30.0563 54.0231 29.5021 52.499 29.4579C48.8564 29.0768 45.3231 31.6249 43.4675 31.6249C41.5749 31.6249 38.7175 29.4947 35.6379 29.5573C31.6749 29.6181 27.9675 31.8992 25.9342 35.4414C21.7379 42.664 24.8675 53.2779 28.8879 59.116C30.899 61.9752 33.249 65.1676 36.3249 65.0553C39.3342 64.932 40.4583 63.1479 44.0897 63.1479C47.6879 63.1479 48.7434 65.0553 51.8805 64.9835C55.1101 64.932 57.1434 62.1114 59.0842 59.2264C61.4082 55.9493 62.3416 52.7219 62.3786 52.5562C62.3027 52.5304 56.1064 50.1793 56.0453 43.0672Z" fill="black"/>
<path d="M50.1193 25.6176C51.7378 23.6052 52.8452 20.8676 52.5378 18.0894C50.1952 18.1925 47.2656 19.7003 45.5785 21.6684C44.0859 23.4027 42.7526 26.2454 43.097 28.9186C45.7285 29.1138 48.4304 27.5986 50.1193 25.6176Z" fill="black"/>
<path d="M99.5954 64.645H95.3898L93.0861 57.4482H85.0787L82.8842 64.645H78.7898L86.7231 40.1438H91.6231L99.5954 64.645ZM92.3916 54.4288L90.3083 48.031C90.0879 47.3774 89.675 45.8383 89.0657 43.4154H88.9916C88.7491 44.4575 88.3583 45.9966 87.8213 48.031L85.775 54.4288H92.3916Z" fill="black"/>
<path d="M119.997 55.594C119.997 58.5986 119.181 60.9736 117.547 62.7171C116.085 64.2692 114.268 65.0443 112.099 65.0443C109.759 65.0443 108.077 64.2084 107.053 62.5367H106.979V71.8434H103.031V52.7937C103.031 50.9047 102.981 48.9661 102.885 46.9777H106.357L106.577 49.778H106.651C107.968 47.6681 109.966 46.615 112.647 46.615C114.744 46.615 116.494 47.438 117.894 49.0857C119.297 50.7353 119.997 52.9041 119.997 55.594ZM115.975 55.7376C115.975 54.018 115.586 52.6004 114.805 51.4847C113.951 50.3211 112.805 49.7393 111.368 49.7393C110.394 49.7393 109.509 50.0633 108.718 50.7022C107.925 51.3466 107.407 52.188 107.164 53.23C107.042 53.7161 106.981 54.1137 106.981 54.4267V57.3725C106.981 58.6575 107.377 59.7419 108.17 60.6275C108.962 61.5131 109.992 61.9549 111.259 61.9549C112.746 61.9549 113.903 61.3842 114.731 60.2464C115.56 59.1068 115.975 57.6044 115.975 55.7376Z" fill="black"/>
<path d="M140.436 55.594C140.436 58.5986 139.619 60.9736 137.984 62.7171C136.523 64.2692 134.706 65.0443 132.538 65.0443C130.197 65.0443 128.515 64.2084 127.493 62.5367H127.419V71.8434H123.471V52.7937C123.471 50.9047 123.421 48.9661 123.325 46.9777H126.797L127.017 49.778H127.091C128.406 47.6681 130.404 46.615 133.088 46.615C135.182 46.615 136.932 47.438 138.336 49.0857C139.734 50.7353 140.436 52.9041 140.436 55.594ZM136.414 55.7376C136.414 54.018 136.023 52.6004 135.241 51.4847C134.388 50.3211 133.245 49.7393 131.806 49.7393C130.83 49.7393 129.947 50.0633 129.154 50.7022C128.362 51.3466 127.845 52.188 127.602 53.23C127.482 53.7161 127.419 54.1137 127.419 54.4267V57.3725C127.419 58.6575 127.815 59.7419 128.604 60.6275C129.397 61.5112 130.427 61.9549 131.697 61.9549C133.184 61.9549 134.341 61.3842 135.169 60.2464C135.999 59.1068 136.414 57.6044 136.414 55.7376Z" fill="black"/>
<path d="M163.288 57.7739C163.288 59.858 162.56 61.5537 161.099 62.8627C159.493 64.2932 157.258 65.0075 154.386 65.0075C151.734 65.0075 149.608 64.4994 147.999 63.4813L148.914 60.2097C150.647 61.2517 152.549 61.7746 154.621 61.7746C156.108 61.7746 157.266 61.4395 158.097 60.773C158.925 60.1066 159.338 59.2118 159.338 58.0961C159.338 57.1019 158.997 56.2642 158.314 55.5849C157.634 54.9055 156.499 54.274 154.914 53.6904C150.599 52.0905 148.443 49.7468 148.443 46.6648C148.443 44.6507 149.199 42.9992 150.712 41.7141C152.219 40.4272 154.231 39.7847 156.745 39.7847C158.988 39.7847 160.851 40.1731 162.338 40.9482L161.351 44.148C159.962 43.3969 158.392 43.0213 156.634 43.0213C155.245 43.0213 154.16 43.3619 153.382 44.0394C152.725 44.6451 152.395 45.3834 152.395 46.2579C152.395 47.2263 152.771 48.0272 153.527 48.6569C154.184 49.2386 155.379 49.8683 157.112 50.5477C159.232 51.3964 160.79 52.3887 161.792 53.5265C162.79 54.6606 163.288 56.0801 163.288 57.7739Z" fill="black"/>
<path d="M176.342 49.9237H171.99V58.5013C171.99 60.683 172.757 61.7729 174.294 61.7729C174.999 61.7729 175.584 61.7122 176.047 61.5907L176.157 64.5714C175.379 64.8604 174.355 65.0059 173.086 65.0059C171.527 65.0059 170.308 64.5327 169.429 63.5882C168.553 62.6419 168.112 61.0549 168.112 58.8253V49.92H165.52V46.9743H168.112V43.7395L171.99 42.5759V46.9743H176.342V49.9237Z" fill="black"/>
<path d="M195.977 55.6658C195.977 58.3814 195.195 60.6109 193.636 62.3544C192.001 64.1495 189.83 65.0442 187.125 65.0442C184.517 65.0442 182.441 64.1845 180.893 62.4649C179.345 60.7453 178.571 58.5747 178.571 55.9585C178.571 53.2208 179.367 50.9784 180.965 49.2348C182.56 47.4895 184.712 46.6168 187.417 46.6168C190.025 46.6168 192.123 47.4766 193.706 49.198C195.221 50.8679 195.977 53.0238 195.977 55.6658ZM191.88 55.7928C191.88 54.1634 191.53 52.766 190.821 51.6006C189.993 50.1904 188.81 49.4871 187.277 49.4871C185.69 49.4871 184.484 50.1922 183.656 51.6006C182.947 52.7679 182.597 54.1874 182.597 55.8664C182.597 57.4958 182.947 58.8932 183.656 60.0567C184.51 61.467 185.703 62.1703 187.241 62.1703C188.749 62.1703 189.932 61.4523 190.786 60.0199C191.514 58.8324 191.88 57.4203 191.88 55.7928Z" fill="black"/>
<path d="M208.81 50.4297C208.42 50.3579 208.003 50.3211 207.566 50.3211C206.177 50.3211 205.103 50.8421 204.347 51.886C203.69 52.8066 203.36 53.9701 203.36 55.3749V64.6447H199.414L199.451 52.5414C199.451 50.5052 199.401 48.6512 199.303 46.9795H202.742L202.886 50.3598H202.996C203.412 49.198 204.07 48.2628 204.97 47.5613C205.849 46.9298 206.799 46.615 207.823 46.615C208.188 46.615 208.518 46.6408 208.81 46.6868V50.4297Z" fill="black"/>
<path d="M226.467 54.9753C226.467 55.6786 226.421 56.2714 226.323 56.7556H214.479C214.525 58.501 215.097 59.8358 216.197 60.7563C217.195 61.5793 218.486 61.9917 220.071 61.9917C221.825 61.9917 223.425 61.7137 224.864 61.1558L225.482 63.8806C223.801 64.6097 221.816 64.9724 219.525 64.9724C216.769 64.9724 214.606 64.166 213.032 62.555C211.462 60.9441 210.675 58.7808 210.675 56.0671C210.675 53.403 211.406 51.1845 212.871 49.4152C214.404 47.5263 216.477 46.5818 219.084 46.5818C221.645 46.5818 223.584 47.5263 224.901 49.4152C225.943 50.9157 226.467 52.7715 226.467 54.9753ZM222.703 53.9572C222.729 52.7936 222.471 51.7884 221.936 50.9396C221.253 49.8479 220.203 49.3029 218.79 49.3029C217.499 49.3029 216.449 49.835 215.647 50.9028C214.99 51.7516 214.599 52.7697 214.479 53.9553H222.703V53.9572Z" fill="black"/>
<path d="M91.0859 25.0707C91.0859 27.2376 90.4322 28.8688 89.1266 29.9643C87.9174 30.975 86.1988 31.4813 83.9729 31.4813C82.8692 31.4813 81.9248 31.4335 81.134 31.3377V19.4977C82.1655 19.332 83.2766 19.2473 84.4766 19.2473C86.597 19.2473 88.1951 19.7057 89.2729 20.6226C90.4803 21.6591 91.0859 23.1412 91.0859 25.0707ZM89.0396 25.1241C89.0396 23.7193 88.6655 22.6423 87.9174 21.8911C87.1692 21.1418 86.0766 20.7662 84.6377 20.7662C84.0266 20.7662 83.5063 20.8067 83.0748 20.8914V29.8925C83.3137 29.9293 83.7507 29.9459 84.3859 29.9459C85.8711 29.9459 87.0174 29.5353 87.8248 28.7142C88.6322 27.8931 89.0396 26.6963 89.0396 25.1241Z" fill="black"/>
<path d="M101.936 26.9632C101.936 28.298 101.553 29.3916 100.786 30.2495C99.9823 31.1314 98.9175 31.5714 97.5878 31.5714C96.3064 31.5714 95.286 31.1498 94.5249 30.3029C93.7656 29.4578 93.386 28.3919 93.386 27.1068C93.386 25.7628 93.7767 24.66 94.5619 23.8039C95.3471 22.9478 96.4027 22.5188 97.7323 22.5188C99.0138 22.5188 100.043 22.9404 100.823 23.7855C101.564 24.6066 101.936 25.6671 101.936 26.9632ZM99.923 27.0258C99.923 26.2249 99.749 25.5382 99.4027 24.9656C98.9952 24.2734 98.4156 23.9272 97.6619 23.9272C96.8823 23.9272 96.2897 24.2734 95.8823 24.9656C95.5341 25.5382 95.3619 26.2359 95.3619 27.0608C95.3619 27.8616 95.536 28.5484 95.8823 29.1209C96.3027 29.8132 96.8878 30.1593 97.6434 30.1593C98.3841 30.1593 98.9656 29.8077 99.3841 29.1025C99.7434 28.5189 99.923 27.8266 99.923 27.0258Z" fill="black"/>
<path d="M116.484 22.6957L113.752 31.3746H111.975L110.843 27.6059C110.556 26.6651 110.323 25.7298 110.141 24.8019H110.106C109.938 25.7556 109.704 26.689 109.404 27.6059L108.202 31.3746H106.404L103.836 22.6957H105.83L106.817 26.8216C107.056 27.7973 107.252 28.7271 107.41 29.6071H107.445C107.589 28.8817 107.828 27.9575 108.165 26.84L109.404 22.6975H110.986L112.173 26.7516C112.46 27.7403 112.693 28.6921 112.873 29.609H112.926C113.058 28.716 113.256 27.7642 113.519 26.7516L114.578 22.6975H116.484V22.6957Z" fill="black"/>
<path d="M126.545 31.3744H124.605V26.4035C124.605 24.8717 124.019 24.1058 122.845 24.1058C122.269 24.1058 121.805 24.3157 121.444 24.7373C121.086 25.1589 120.905 25.656 120.905 26.2249V31.3726H118.964V25.1755C118.964 24.4133 118.94 23.5867 118.894 22.6919H120.599L120.69 24.0488H120.744C120.969 23.6272 121.307 23.2792 121.749 23.0012C122.275 22.6772 122.864 22.5133 123.508 22.5133C124.323 22.5133 125.001 22.7747 125.54 23.2994C126.21 23.942 126.545 24.9012 126.545 26.1752V31.3744Z" fill="black"/>
<path d="M131.897 31.3745H129.958V18.7134H131.897V31.3745Z" fill="black"/>
<path d="M143.323 26.9632C143.323 28.298 142.939 29.3916 142.173 30.2495C141.369 31.1314 140.302 31.5714 138.975 31.5714C137.691 31.5714 136.671 31.1498 135.912 30.3029C135.152 29.4578 134.773 28.3919 134.773 27.1068C134.773 25.7628 135.163 24.66 135.949 23.8039C136.734 22.9478 137.789 22.5188 139.117 22.5188C140.4 22.5188 141.428 22.9404 142.21 23.7855C142.95 24.6066 143.323 25.6671 143.323 26.9632ZM141.308 27.0258C141.308 26.2249 141.134 25.5382 140.788 24.9656C140.382 24.2734 139.8 23.9272 139.049 23.9272C138.267 23.9272 137.675 24.2734 137.269 24.9656C136.921 25.5382 136.749 26.2359 136.749 27.0608C136.749 27.8616 136.923 28.5484 137.269 29.1209C137.689 29.8132 138.275 30.1593 139.03 30.1593C139.771 30.1593 140.35 29.8077 140.769 29.1025C141.13 28.5189 141.308 27.8266 141.308 27.0258Z" fill="black"/>
<path d="M152.716 31.3744H150.973L150.829 30.3747H150.775C150.179 31.1719 149.329 31.5714 148.225 31.5714C147.401 31.5714 146.734 31.3081 146.232 30.7853C145.777 30.3103 145.549 29.7193 145.549 29.0178C145.549 27.9574 145.994 27.1491 146.888 26.5894C147.781 26.0297 149.036 25.7554 150.653 25.7683V25.6063C150.653 24.463 150.049 23.8922 148.84 23.8922C147.979 23.8922 147.219 24.1077 146.564 24.5348L146.169 23.2681C146.981 22.7692 147.982 22.5188 149.164 22.5188C151.445 22.5188 152.59 23.7155 152.59 26.1089V29.305C152.59 30.1722 152.632 30.8626 152.716 31.3744ZM150.701 28.3919V27.0534C148.56 27.0166 147.49 27.6002 147.49 28.8024C147.49 29.2553 147.612 29.5941 147.862 29.8205C148.112 30.047 148.431 30.1593 148.81 30.1593C149.236 30.1593 149.634 30.0249 149.997 29.7579C150.362 29.4891 150.586 29.1485 150.669 28.7306C150.69 28.6367 150.701 28.5226 150.701 28.3919Z" fill="black"/>
<path d="M163.743 31.3745H162.021L161.93 29.9808H161.877C161.327 31.0413 160.39 31.5715 159.073 31.5715C158.021 31.5715 157.145 31.161 156.451 30.3398C155.756 29.5187 155.41 28.4527 155.41 27.1437C155.41 25.739 155.786 24.6012 156.541 23.7322C157.273 22.9221 158.169 22.5171 159.236 22.5171C160.408 22.5171 161.228 22.9092 161.695 23.6954H161.732V18.7134H163.675V29.0363C163.675 29.8814 163.697 30.6602 163.743 31.3745ZM161.732 27.7144V26.2674C161.732 26.017 161.714 25.8144 161.678 25.6598C161.569 25.1958 161.334 24.8055 160.977 24.4907C160.615 24.1759 160.18 24.0175 159.678 24.0175C158.954 24.0175 158.388 24.3029 157.971 24.8755C157.558 25.4481 157.349 26.179 157.349 27.0719C157.349 27.9299 157.547 28.6258 157.945 29.1615C158.365 29.7323 158.932 30.0176 159.641 30.0176C160.278 30.0176 160.788 29.7801 161.175 29.3033C161.549 28.8633 161.732 28.333 161.732 27.7144Z" fill="black"/>
<path d="M180.342 26.9632C180.342 28.298 179.958 29.3916 179.192 30.2495C178.388 31.1314 177.325 31.5714 175.993 31.5714C174.714 31.5714 173.693 31.1498 172.93 30.3029C172.171 29.4578 171.792 28.3919 171.792 27.1068C171.792 25.7628 172.182 24.66 172.967 23.8039C173.753 22.9478 174.808 22.5188 176.14 22.5188C177.419 22.5188 178.451 22.9404 179.229 23.7855C179.969 24.6066 180.342 25.6671 180.342 26.9632ZM178.33 27.0258C178.33 26.2249 178.156 25.5382 177.81 24.9656C177.401 24.2734 176.823 23.9272 176.067 23.9272C175.29 23.9272 174.697 24.2734 174.288 24.9656C173.94 25.5382 173.767 26.2359 173.767 27.0608C173.767 27.8616 173.942 28.5484 174.288 29.1209C174.708 29.8132 175.293 30.1593 176.049 30.1593C176.79 30.1593 177.373 29.8077 177.792 29.1025C178.149 28.5189 178.33 27.8266 178.33 27.0258Z" fill="black"/>
<path d="M190.777 31.3744H188.838V26.4035C188.838 24.8717 188.253 24.1058 187.077 24.1058C186.501 24.1058 186.036 24.3157 185.677 24.7373C185.317 25.1589 185.138 25.656 185.138 26.2249V31.3726H183.195V25.1755C183.195 24.4133 183.173 23.5867 183.127 22.6919H184.83L184.921 24.0488H184.975C185.203 23.6272 185.54 23.2792 185.98 23.0012C186.508 22.6772 187.095 22.5133 187.742 22.5133C188.554 22.5133 189.232 22.7747 189.771 23.2994C190.443 23.942 190.777 24.9012 190.777 26.1752V31.3744Z" fill="black"/>
<path d="M203.838 24.1409H201.701V28.3569C201.701 29.4285 202.08 29.9642 202.832 29.9642C203.18 29.9642 203.469 29.9348 203.697 29.874L203.747 31.3377C203.364 31.4813 202.86 31.5531 202.24 31.5531C201.473 31.5531 200.877 31.3211 200.445 30.8571C200.012 30.3932 199.797 29.6126 199.797 28.5171V24.1409H198.521V22.6956H199.797V21.1049L201.699 20.5342V22.6938H203.836V24.1409H203.838Z" fill="black"/>
<path d="M214.112 31.3745H212.169V26.4404C212.169 24.8847 211.584 24.1059 210.412 24.1059C209.512 24.1059 208.897 24.557 208.56 25.4591C208.503 25.6487 208.469 25.8807 208.469 26.1532V31.3727H206.53V18.7134H208.469V23.9439H208.506C209.117 22.9921 209.993 22.5171 211.128 22.5171C211.932 22.5171 212.597 22.7785 213.125 23.3032C213.782 23.9568 214.112 24.9289 214.112 26.214V31.3745Z" fill="black"/>
<path d="M224.71 26.6246C224.71 26.9708 224.684 27.2616 224.638 27.4991H218.817C218.843 28.3571 219.121 29.0107 219.66 29.4636C220.152 29.8686 220.788 30.0711 221.565 30.0711C222.427 30.0711 223.212 29.9349 223.919 29.6606L224.223 31.0009C223.395 31.3581 222.421 31.5366 221.293 31.5366C219.941 31.5366 218.877 31.1408 218.106 30.3491C217.332 29.5575 216.949 28.4952 216.949 27.1622C216.949 25.8532 217.306 24.7633 218.027 23.8943C218.778 22.9664 219.795 22.5024 221.078 22.5024C222.334 22.5024 223.288 22.9664 223.932 23.8943C224.452 24.6307 224.71 25.5421 224.71 26.6246ZM222.858 26.1257C222.873 25.5531 222.745 25.0597 222.482 24.6436C222.145 24.1079 221.632 23.8391 220.938 23.8391C220.304 23.8391 219.788 24.1005 219.393 24.6252C219.071 25.0431 218.88 25.5421 218.817 26.1257H222.858Z" fill="black"/>
</svg>
