<svg width="336" height="87" viewBox="0 0 336 87" fill="none" xmlns="http://www.w3.org/2000/svg">
<path d="M323.872 85.6433H12.4499C6.39321 85.6433 1.71216 81.3871 1.71216 76.4674V10.8042C1.71216 5.88424 6.39103 1.64331 12.4499 1.64331H323.872C329.95 1.64331 334.793 5.90267 334.793 10.8042V76.4674C334.793 81.3686 329.948 85.6433 323.872 85.6433Z" stroke="black" stroke-width="2"/>
<path d="M53.9652 44.2899C53.9884 42.4954 54.465 40.7359 55.3509 39.1751C56.2367 37.6143 57.503 36.3029 59.0318 35.363C58.0606 33.9759 56.7793 32.8344 55.2897 32.0291C53.8002 31.2238 52.1433 30.7769 50.4509 30.724C46.8405 30.345 43.3404 32.8844 41.5007 32.8844C39.6253 32.8844 36.7927 30.7616 33.7424 30.8244C31.7694 30.8881 29.8466 31.4618 28.1612 32.4897C26.4759 33.5175 25.0856 34.9643 24.1257 36.6893C19.9676 43.8883 23.0691 54.4686 27.0522 60.2878C29.0451 63.1373 31.3741 66.3202 34.4216 66.2073C37.4038 66.0837 38.5176 64.3057 42.1173 64.3057C45.6836 64.3057 46.7286 66.2073 49.8379 66.1356C53.0379 66.0836 55.0541 63.2734 56.977 60.3969C58.4088 58.3666 59.5106 56.1226 60.2416 53.7481C58.3825 52.9618 56.796 51.6456 55.6798 49.9636C54.5637 48.2817 53.9674 46.3084 53.9652 44.2899Z" fill="black"/>
<path d="M48.0924 26.8969C49.8372 24.8024 50.6967 22.1102 50.4886 19.3921C47.823 19.6721 45.3607 20.9461 43.5923 22.9602C42.7277 23.9442 42.0655 25.089 41.6436 26.329C41.2217 27.5691 41.0483 28.8801 41.1333 30.1872C42.4666 30.2009 43.7857 29.9119 44.9911 29.342C46.1965 28.7721 47.2569 27.936 48.0924 26.8969Z" fill="black"/>
<path d="M99.9326 66.2098V46.5597H99.8024L91.7546 66.0062H88.6829L80.6141 46.5597H80.486V66.2098H76.7109V39.5112H81.5043L90.1442 60.5849H90.2912L98.9142 39.5112H103.724V66.2098L99.9326 66.2098Z" fill="black"/>
<path d="M106.914 60.6774C106.914 57.274 109.522 55.2185 114.149 54.9412L119.478 54.6452V53.165C119.478 51.0003 118.052 49.7783 115.627 49.7783C114.729 49.6588 113.818 49.8713 113.065 50.3758C112.313 50.8802 111.77 51.6421 111.539 52.5183H107.802C107.913 49.0014 111.189 46.505 115.738 46.505C120.383 46.505 123.455 49.0392 123.455 52.869V66.2099H119.625V63.008H119.532C118.919 64.0937 118.025 64.9946 116.945 65.6166C115.864 66.2386 114.636 66.5588 113.389 66.5437C112.57 66.6238 111.743 66.5318 110.962 66.2735C110.181 66.0153 109.462 65.5965 108.853 65.044C108.243 64.4916 107.755 63.8177 107.422 63.0657C107.088 62.3137 106.915 61.5002 106.914 60.6774ZM119.478 58.9201V57.4209L114.684 57.717C112.297 57.8661 110.947 58.9012 110.947 60.5661C110.947 62.2689 112.354 63.3796 114.5 63.3796C115.121 63.4218 115.745 63.3391 116.334 63.1364C116.923 62.9338 117.465 62.6152 117.929 62.1996C118.393 61.784 118.769 61.2797 119.035 60.7164C119.301 60.1532 119.452 59.5424 119.478 58.9201H119.478Z" fill="black"/>
<path d="M140.232 53.4424C140.058 52.3776 139.489 51.4175 138.639 50.7527C137.789 50.088 136.72 49.7672 135.645 49.8541C132.573 49.8541 130.538 52.4262 130.538 56.4784C130.538 60.623 132.592 63.1194 135.68 63.1194C136.742 63.2257 137.803 62.9232 138.649 62.2736C139.495 61.624 140.061 60.6762 140.232 59.6235H144.081C143.841 61.6364 142.826 63.4763 141.25 64.7516C139.674 66.0269 137.663 66.6368 135.645 66.4515C130.093 66.4515 126.467 62.6575 126.467 56.4784C126.467 50.4274 130.093 46.5053 135.607 46.5053C137.64 46.3329 139.661 46.9617 141.237 48.2576C142.813 49.5535 143.821 51.414 144.045 53.4424H140.232Z" fill="black"/>
<path d="M170.044 58.9935H159.868L157.424 66.2098H153.113L162.753 39.5112H167.231L176.87 66.2098H172.486L170.044 58.9935ZM160.922 55.6635H168.988L165.012 43.9519H164.901L160.922 55.6635Z" fill="black"/>
<path d="M197.688 56.4783C197.688 62.5272 194.45 66.4136 189.565 66.4136C188.327 66.4783 187.096 66.1932 186.013 65.5909C184.93 64.9886 184.038 64.0935 183.44 63.008H183.348V72.6494H179.352V46.7445H183.22V49.9821H183.293C183.919 48.9018 184.825 48.0113 185.917 47.4053C187.008 46.7993 188.243 46.5006 189.491 46.5408C194.431 46.5408 197.688 50.4461 197.688 56.4783ZM193.581 56.4783C193.581 52.5373 191.544 49.9464 188.437 49.9464C185.384 49.9464 183.331 52.5919 183.331 56.4783C183.331 60.4003 185.384 63.0269 188.437 63.0269C191.544 63.0269 193.581 60.4549 193.581 56.4783Z" fill="black"/>
<path d="M219.112 56.4783C219.112 62.5272 215.875 66.4136 210.989 66.4136C209.751 66.4783 208.52 66.1932 207.437 65.5909C206.354 64.9886 205.462 64.0935 204.864 63.008H204.772V72.6494H200.776V46.7445H204.644V49.9821H204.717C205.343 48.9018 206.25 48.0113 207.341 47.4053C208.432 46.7993 209.668 46.5006 210.915 46.5408C215.856 46.5408 219.112 50.4461 219.112 56.4783ZM215.005 56.4783C215.005 52.5373 212.969 49.9464 209.861 49.9464C206.809 49.9464 204.755 52.5919 204.755 56.4783C204.755 60.4003 206.809 63.0269 209.861 63.0269C212.969 63.0269 215.005 60.4549 215.005 56.4783H215.005Z" fill="black"/>
<path d="M233.272 58.771C233.568 61.4187 236.14 63.157 239.655 63.157C243.023 63.157 245.445 61.4186 245.445 59.0313C245.445 56.959 243.984 55.7182 240.524 54.8678L237.064 54.0342C232.161 52.8501 229.885 50.5573 229.885 46.8368C229.885 42.2303 233.9 39.0662 239.6 39.0662C245.242 39.0662 249.109 42.2303 249.239 46.8368H245.206C244.965 44.1724 242.762 42.5641 239.543 42.5641C236.325 42.5641 234.122 44.1913 234.122 46.5597C234.122 48.4472 235.529 49.5579 238.97 50.4082L241.912 51.1304C247.39 52.4259 249.666 54.6263 249.666 58.5315C249.666 63.5265 245.687 66.6549 239.359 66.6549C233.438 66.6549 229.44 63.5999 229.182 58.7708L233.272 58.771Z" fill="black"/>
<path d="M258.289 42.1381V46.7446H261.99V49.9087H258.289V60.6398C258.289 62.3068 259.03 63.0837 260.657 63.0837C261.097 63.076 261.535 63.0452 261.972 62.9912V66.1365C261.24 66.2731 260.496 66.3351 259.752 66.3212C255.811 66.3212 254.274 64.841 254.274 61.0659V49.9087H251.444V46.7446H254.274V42.1381H258.289Z" fill="black"/>
<path d="M264.132 56.4784C264.132 50.3538 267.739 46.5052 273.364 46.5052C279.008 46.5052 282.598 50.3537 282.598 56.4784C282.598 62.6197 279.027 66.4515 273.364 66.4515C267.704 66.4515 264.132 62.6197 264.132 56.4784ZM278.527 56.4784C278.527 52.2771 276.602 49.7974 273.364 49.7974C270.126 49.7974 268.201 52.296 268.201 56.4784C268.201 60.6965 270.126 63.1572 273.364 63.1572C276.602 63.1572 278.527 60.6965 278.527 56.4784H278.527Z" fill="black"/>
<path d="M285.894 46.7446H289.705V50.0577H289.798C290.055 49.0229 290.662 48.1085 291.514 47.468C292.367 46.8276 293.414 46.5002 294.48 46.5409C294.94 46.5393 295.399 46.5893 295.849 46.6899V50.4272C295.267 50.2496 294.661 50.1681 294.053 50.1858C293.473 50.1622 292.894 50.2646 292.357 50.4858C291.82 50.707 291.337 51.0418 290.941 51.4673C290.546 51.8928 290.247 52.3988 290.066 52.9506C289.884 53.5024 289.824 54.087 289.89 54.6642V66.2099H285.894V46.7446Z" fill="black"/>
<path d="M314.268 60.4928C313.731 64.0264 310.29 66.4515 305.887 66.4515C300.224 66.4515 296.709 62.6575 296.709 56.5707C296.709 50.4651 300.243 46.5052 305.719 46.5052C311.104 46.5052 314.491 50.2047 314.491 56.1067V57.4757H300.743V57.7171C300.679 58.4335 300.769 59.1552 301.006 59.8342C301.243 60.5133 301.621 61.1342 302.117 61.6556C302.612 62.1771 303.213 62.5873 303.878 62.8588C304.544 63.1304 305.261 63.2571 305.979 63.2307C306.923 63.3191 307.871 63.1005 308.681 62.6072C309.491 62.1139 310.12 61.3723 310.474 60.4928L314.268 60.4928ZM300.762 54.6832H310.493C310.529 54.0391 310.432 53.3945 310.207 52.7899C309.981 52.1853 309.634 51.6337 309.186 51.1698C308.737 50.7059 308.198 50.3397 307.601 50.0942C307.005 49.8486 306.364 49.729 305.719 49.7428C305.068 49.739 304.423 49.864 303.821 50.1107C303.219 50.3574 302.672 50.7209 302.211 51.1802C301.75 51.6395 301.385 52.1855 301.136 52.7868C300.887 53.388 300.76 54.0326 300.762 54.6832L300.762 54.6832Z" fill="black"/>
<path d="M82.0381 19.4152C82.8758 19.3551 83.7163 19.4816 84.4992 19.7857C85.282 20.0898 85.9876 20.5638 86.5651 21.1736C87.1425 21.7834 87.5775 22.5138 87.8385 23.312C88.0995 24.1102 88.1801 24.9564 88.0745 25.7896C88.0745 29.888 85.8594 32.2439 82.0381 32.2439H77.4043V19.4152H82.0381ZM79.3968 30.4296H81.8155C82.4141 30.4654 83.0131 30.3672 83.569 30.1423C84.1248 29.9174 84.6236 29.5714 85.0288 29.1294C85.4341 28.6874 85.7357 28.1607 85.9117 27.5874C86.0877 27.0142 86.1337 26.409 86.0462 25.8157C86.1273 25.2248 86.0767 24.6233 85.898 24.0543C85.7193 23.4853 85.4169 22.9628 85.0126 22.5244C84.6082 22.0859 84.1119 21.7423 83.5592 21.5182C83.0065 21.2941 82.4111 21.195 81.8155 21.2281H79.3968V30.4296Z" fill="black"/>
<path d="M90.3253 27.3988C90.2644 26.7626 90.3372 26.1207 90.539 25.5142C90.7407 24.9078 91.067 24.3502 91.4969 23.8772C91.9268 23.4043 92.4507 23.0264 93.0352 22.7678C93.6197 22.5092 94.2518 22.3756 94.8909 22.3756C95.53 22.3756 96.1621 22.5092 96.7466 22.7678C97.331 23.0264 97.855 23.4043 98.2849 23.8772C98.7148 24.3502 99.0411 24.9078 99.2428 25.5142C99.4446 26.1207 99.5173 26.7626 99.4565 27.3988C99.5185 28.0357 99.4466 28.6785 99.2454 29.2859C99.0441 29.8933 98.7181 30.452 98.2881 30.9258C97.8581 31.3997 97.3337 31.7784 96.7487 32.0376C96.1636 32.2967 95.5308 32.4306 94.8909 32.4306C94.251 32.4306 93.6182 32.2967 93.0331 32.0376C92.4481 31.7784 91.9237 31.3997 91.4937 30.9258C91.0637 30.452 90.7376 29.8933 90.5364 29.2859C90.3352 28.6785 90.2633 28.0357 90.3253 27.3988ZM97.4912 27.3988C97.4912 25.3003 96.5485 24.073 94.894 24.073C93.2333 24.073 92.299 25.3003 92.299 27.3988C92.299 29.5142 93.2333 30.7319 94.894 30.7319C96.5485 30.7319 97.4913 29.5058 97.4913 27.3988H97.4912Z" fill="black"/>
<path d="M111.594 32.2436H109.612L107.611 25.1134H107.46L105.468 32.2436H103.505L100.836 22.5624H102.774L104.508 29.9498H104.651L106.641 22.5624H108.474L110.465 29.9498H110.616L112.342 22.5624H114.252L111.594 32.2436Z" fill="black"/>
<path d="M116.497 22.5624H118.336V24.1003H118.479C118.721 23.548 119.13 23.0849 119.647 22.7757C120.165 22.4665 120.767 22.3266 121.368 22.3755C121.839 22.3401 122.312 22.4111 122.752 22.5833C123.192 22.7555 123.587 23.0245 123.909 23.3703C124.231 23.7161 124.471 24.1299 124.611 24.581C124.751 25.0321 124.788 25.509 124.719 25.9763V32.2435H122.808V26.4561C122.808 24.9003 122.132 24.1266 120.719 24.1266C120.399 24.1117 120.08 24.1661 119.783 24.2862C119.486 24.4062 119.219 24.589 118.999 24.822C118.78 25.055 118.613 25.3328 118.511 25.6362C118.409 25.9396 118.374 26.2616 118.407 26.58V32.2436H116.497L116.497 22.5624Z" fill="black"/>
<path d="M127.763 18.7831H129.674V32.2436H127.763V18.7831Z" fill="black"/>
<path d="M132.33 27.3988C132.269 26.7626 132.342 26.1207 132.544 25.5142C132.745 24.9078 133.072 24.3502 133.502 23.8772C133.931 23.4043 134.455 23.0264 135.04 22.7678C135.624 22.5092 136.256 22.3756 136.896 22.3756C137.535 22.3756 138.167 22.5092 138.751 22.7678C139.336 23.0264 139.86 23.4043 140.29 23.8772C140.719 24.3502 141.046 24.9078 141.247 25.5142C141.449 26.1207 141.522 26.7626 141.461 27.3988C141.523 28.0357 141.451 28.6785 141.25 29.2859C141.049 29.8933 140.723 30.452 140.293 30.9258C139.863 31.3997 139.338 31.7784 138.753 32.0376C138.168 32.2967 137.535 32.4306 136.896 32.4306C136.256 32.4306 135.623 32.2967 135.038 32.0376C134.453 31.7784 133.928 31.3997 133.498 30.9258C133.068 30.452 132.742 29.8933 132.541 29.2859C132.34 28.6785 132.268 28.0357 132.33 27.3988ZM139.496 27.3988C139.496 25.3003 138.553 24.073 136.899 24.073C135.238 24.073 134.304 25.3003 134.304 27.3988C134.304 29.5142 135.238 30.7319 136.899 30.7319C138.553 30.7319 139.496 29.5058 139.496 27.3988H139.496Z" fill="black"/>
<path d="M143.473 29.5057C143.473 27.7631 144.77 26.7584 147.073 26.6156L149.696 26.4645V25.6288C149.696 24.6063 149.02 24.0289 147.714 24.0289C146.647 24.0289 145.908 24.4205 145.696 25.105H143.846C144.042 23.4421 145.606 22.3755 147.802 22.3755C150.229 22.3755 151.598 23.5838 151.598 25.6288V32.2436H149.759V30.8831H149.608C149.301 31.3711 148.87 31.769 148.359 32.036C147.848 32.3031 147.276 32.4297 146.7 32.4031C146.293 32.4454 145.883 32.402 145.494 32.2758C145.105 32.1496 144.747 31.9434 144.443 31.6704C144.139 31.3974 143.896 31.0638 143.729 30.6909C143.561 30.3181 143.474 29.9143 143.473 29.5057ZM149.696 28.6785V27.8691L147.332 28.0203C145.998 28.1095 145.394 28.563 145.394 29.4165C145.394 30.2878 146.15 30.7949 147.189 30.7949C147.494 30.8257 147.801 30.7949 148.094 30.7044C148.386 30.614 148.657 30.4656 148.891 30.2681C149.125 30.0706 149.317 29.8282 149.455 29.5551C149.593 29.282 149.675 28.9839 149.696 28.6785Z" fill="black"/>
<path d="M154.109 27.3988C154.109 24.3397 155.682 22.4018 158.128 22.4018C158.733 22.3739 159.333 22.5188 159.859 22.8196C160.385 23.1204 160.814 23.5646 161.097 24.1003H161.239V18.7831H163.15V32.2436H161.319V30.7141H161.168C160.864 31.2462 160.419 31.6848 159.883 31.9826C159.348 32.2803 158.74 32.4258 158.128 32.4032C155.665 32.4033 154.109 30.4653 154.109 27.3988ZM156.083 27.3988C156.083 29.4522 157.051 30.6879 158.67 30.6879C160.28 30.6879 161.275 29.4344 161.275 27.4072C161.275 25.3895 160.269 24.1182 158.67 24.1182C157.061 24.1182 156.083 25.3622 156.083 27.3988H156.083Z" fill="black"/>
<path d="M171.055 27.3989C170.994 26.7626 171.067 26.1206 171.269 25.5142C171.471 24.9077 171.797 24.3501 172.227 23.8771C172.657 23.4042 173.181 23.0263 173.765 22.7677C174.35 22.5091 174.982 22.3755 175.621 22.3755C176.26 22.3755 176.892 22.5091 177.477 22.7677C178.061 23.0263 178.585 23.4042 179.015 23.8771C179.445 24.3501 179.772 24.9077 179.973 25.5142C180.175 26.1206 180.248 26.7626 180.187 27.3989C180.249 28.0358 180.177 28.6786 179.976 29.286C179.775 29.8934 179.448 30.452 179.018 30.9259C178.588 31.3998 178.064 31.7784 177.479 32.0376C176.894 32.2967 176.261 32.4306 175.621 32.4306C174.981 32.4306 174.348 32.2967 173.763 32.0376C173.178 31.7784 172.654 31.3998 172.224 30.9259C171.794 30.452 171.468 29.8934 171.266 29.286C171.065 28.6786 170.993 28.0358 171.055 27.3989ZM178.221 27.3989C178.221 25.3003 177.278 24.0731 175.624 24.0731C173.963 24.0731 173.029 25.3003 173.029 27.3989C173.029 29.5142 173.963 30.732 175.624 30.732C177.278 30.732 178.221 29.5058 178.221 27.3989H178.221Z" fill="black"/>
<path d="M182.751 22.5624H184.59V24.1003H184.733C184.975 23.548 185.383 23.0849 185.901 22.7757C186.419 22.4665 187.021 22.3266 187.622 22.3755C188.093 22.3401 188.566 22.4111 189.006 22.5833C189.446 22.7555 189.841 23.0245 190.163 23.3703C190.485 23.7161 190.725 24.1299 190.865 24.581C191.005 25.0321 191.042 25.509 190.973 25.9763V32.2435H189.062V26.4561C189.062 24.9003 188.386 24.1266 186.973 24.1266C186.653 24.1117 186.334 24.1661 186.037 24.2862C185.74 24.4062 185.473 24.589 185.253 24.822C185.034 25.055 184.867 25.3328 184.765 25.6362C184.663 25.9396 184.627 26.2616 184.661 26.58V32.2436H182.751V22.5624Z" fill="black"/>
<path d="M201.769 20.152V22.6064H203.867V24.2158H201.769V29.1939C201.769 30.208 202.187 30.6521 203.138 30.6521C203.381 30.6513 203.625 30.6366 203.867 30.608V32.1995C203.523 32.2609 203.176 32.2935 202.827 32.2971C200.702 32.2971 199.856 31.5496 199.856 29.6831V24.2157H198.319V22.6063H199.856V20.152H201.769Z" fill="black"/>
<path d="M206.476 18.7831H208.37V24.1182H208.521C208.775 23.5606 209.195 23.095 209.723 22.7846C210.252 22.4743 210.863 22.3344 211.473 22.3839C211.942 22.3584 212.41 22.4366 212.845 22.613C213.28 22.7894 213.671 23.0596 213.989 23.4043C214.308 23.7491 214.546 24.1598 214.688 24.6073C214.829 25.0548 214.87 25.528 214.807 25.9931V32.2436H212.895V26.4645C212.895 24.9181 212.175 24.135 210.825 24.135C210.496 24.108 210.166 24.1532 209.857 24.2672C209.548 24.3813 209.267 24.5615 209.035 24.7953C208.803 25.0291 208.625 25.3108 208.513 25.6207C208.401 25.9306 208.358 26.2612 208.387 26.5894V32.2436H206.476L206.476 18.7831Z" fill="black"/>
<path d="M225.948 29.6296C225.688 30.5145 225.126 31.2798 224.359 31.7918C223.592 32.3039 222.67 32.5299 221.753 32.4305C221.115 32.4473 220.481 32.3252 219.895 32.0725C219.31 31.8198 218.786 31.4427 218.36 30.9672C217.935 30.4918 217.618 29.9294 217.431 29.3192C217.245 28.709 217.194 28.0655 217.281 27.4335C217.196 26.7995 217.248 26.1546 217.434 25.5426C217.62 24.9305 217.935 24.3656 218.359 23.886C218.782 23.4064 219.303 23.0233 219.887 22.7627C220.472 22.5021 221.105 22.3701 221.745 22.3755C224.438 22.3755 226.063 24.2159 226.063 27.256V27.9227H219.227V28.0298C219.197 28.3851 219.242 28.7427 219.358 29.0797C219.475 29.4167 219.66 29.7257 219.903 29.9868C220.146 30.2479 220.44 30.4554 220.768 30.596C221.096 30.7366 221.449 30.8072 221.805 30.8033C222.262 30.8581 222.725 30.7758 223.136 30.5668C223.546 30.3578 223.884 30.0316 224.109 29.6296L225.948 29.6296ZM219.227 26.5096H224.117C224.141 26.1847 224.097 25.8584 223.987 25.5515C223.878 25.2447 223.705 24.9641 223.481 24.7279C223.256 24.4917 222.985 24.3051 222.684 24.18C222.383 24.055 222.06 23.9942 221.734 24.0017C221.404 23.9975 221.076 24.0596 220.769 24.1841C220.463 24.3087 220.185 24.4933 219.952 24.7271C219.718 24.9608 219.534 25.2389 219.409 25.5451C219.285 25.8512 219.223 26.1792 219.227 26.5096H219.227Z" fill="black"/>
</svg>
