<svg width="150" height="150" viewBox="0 0 150 150" fill="none" xmlns="http://www.w3.org/2000/svg">
<path fill-rule="evenodd" clip-rule="evenodd" d="M81.0721 130C80.3714 127.115 80 124.101 80 121C80 118.958 80.161 116.954 80.471 115H62.55C66.5369 112.247 74.0982 109.224 82.5156 107.375C85.0822 100.695 89.4808 94.9234 95.096 90.6756C76.9529 91.4111 45 100.166 45 116.875V130H81.0721ZM71.25 51.25C71.25 65.725 83.025 77.5 97.5 77.5C111.975 77.5 123.75 65.725 123.75 51.25C123.75 36.775 111.975 25 97.5 25C83.025 25 71.25 36.775 71.25 51.25ZM86.25 51.25C86.25 45.025 91.275 40 97.5 40C103.725 40 108.75 45.025 108.75 51.25C108.75 57.475 103.725 62.5 97.5 62.5C91.275 62.5 86.25 57.475 86.25 51.25ZM30 116.875C30 105.775 36 97.375 44.7 91.075C26.25 93.1 0 101.725 0 116.875V130H30V116.875ZM26.25 51.25C26.25 65.725 38.025 77.5 52.5 77.5C56.55 77.5 60.3 76.525 63.75 74.875C59.025 68.2 56.25 60.025 56.25 51.25C56.25 42.475 59.025 34.3 63.75 27.625C60.3 25.975 56.55 25 52.5 25C38.025 25 26.25 36.775 26.25 51.25Z" fill="#666666"/>
<path fill-rule="evenodd" clip-rule="evenodd" d="M119.366 96.1524C119.936 96.23 120.91 96.4197 121.53 96.5739C122.15 96.728 123.109 97.021 123.661 97.2251C124.213 97.4292 125.117 97.8227 125.672 98.0998C126.226 98.3769 127.01 98.8054 127.414 99.052C127.818 99.2987 128.504 99.7641 128.94 100.086C129.375 100.409 130.352 101.292 131.11 102.05C131.869 102.808 132.753 103.784 133.075 104.22C133.398 104.655 133.862 105.338 134.106 105.738C134.351 106.137 134.761 106.881 135.018 107.39C135.276 107.899 135.653 108.748 135.858 109.277C136.062 109.806 136.37 110.785 136.542 111.453C136.715 112.12 136.927 113.214 137.015 113.882C137.103 114.551 137.175 115.759 137.175 116.565C137.175 117.372 137.103 118.579 137.015 119.248C136.927 119.917 136.715 121.01 136.542 121.678C136.37 122.345 136.068 123.308 135.872 123.817C135.675 124.326 135.293 125.182 135.024 125.718C134.754 126.254 134.338 127.014 134.098 127.406C133.858 127.798 133.396 128.475 133.071 128.91C132.746 129.346 132.004 130.194 131.422 130.796C130.841 131.398 130.027 132.167 129.615 132.505C129.202 132.843 128.473 133.382 127.994 133.702C127.514 134.023 126.606 134.549 125.974 134.872C125.343 135.195 124.397 135.625 123.872 135.827C123.347 136.03 122.371 136.337 121.703 136.509C121.035 136.681 119.941 136.894 119.272 136.981C118.602 137.069 117.394 137.141 116.587 137.141C115.78 137.141 114.573 137.069 113.903 136.981C113.234 136.894 112.14 136.681 111.472 136.509C110.804 136.337 109.828 136.03 109.303 135.827C108.778 135.625 107.832 135.195 107.2 134.872C106.569 134.549 105.66 134.023 105.181 133.702C104.702 133.382 103.972 132.843 103.56 132.505C103.147 132.167 102.334 131.398 101.752 130.796C101.171 130.194 100.429 129.346 100.104 128.91C99.779 128.475 99.3168 127.798 99.0769 127.406C98.837 127.014 98.4203 126.254 98.1508 125.718C97.8814 125.182 97.4998 124.326 97.303 123.817C97.1063 123.308 96.8044 122.345 96.6322 121.678C96.46 121.01 96.2473 119.917 96.1595 119.248C96.0718 118.579 96 117.372 96 116.565C96 115.759 96.0718 114.551 96.1595 113.882C96.2473 113.214 96.46 112.12 96.6322 111.453C96.8044 110.785 97.1063 109.822 97.303 109.313C97.4998 108.804 97.8814 107.948 98.1508 107.412C98.4203 106.876 98.837 106.116 99.0769 105.724C99.3168 105.332 99.779 104.655 100.104 104.22C100.429 103.784 101.171 102.936 101.752 102.334C102.334 101.732 103.147 100.963 103.56 100.625C103.972 100.287 104.709 99.7424 105.196 99.4147C105.684 99.0869 106.629 98.5444 107.297 98.2089C107.964 97.8735 108.974 97.4262 109.539 97.2149C110.105 97.0036 111.055 96.7123 111.651 96.5675C112.246 96.4228 113.271 96.2335 113.927 96.1469C114.587 96.0598 115.837 95.9944 116.725 96.0004C117.607 96.0064 118.796 96.0748 119.366 96.1524ZM113.88 102.625C113.308 102.736 112.531 102.929 112.153 103.054C111.776 103.179 110.942 103.536 110.3 103.847C109.658 104.159 108.753 104.695 108.289 105.039C107.824 105.383 107.122 105.966 106.729 106.333C106.336 106.701 105.661 107.471 105.228 108.045C104.773 108.648 104.202 109.585 103.873 110.268C103.559 110.917 103.206 111.738 103.087 112.094C102.969 112.45 102.768 113.233 102.641 113.835C102.46 114.691 102.41 115.287 102.41 116.565C102.41 117.835 102.461 118.441 102.637 119.276C102.762 119.867 103.012 120.769 103.192 121.28C103.372 121.792 103.687 122.541 103.89 122.945C104.094 123.35 104.466 123.993 104.718 124.374C104.969 124.755 105.451 125.396 105.788 125.797C106.126 126.199 106.772 126.848 107.225 127.239C107.678 127.63 108.368 128.16 108.758 128.417C109.148 128.674 109.799 129.051 110.203 129.255C110.608 129.458 111.358 129.772 111.869 129.953C112.381 130.133 113.284 130.383 113.875 130.508C114.71 130.684 115.317 130.734 116.587 130.734C117.866 130.734 118.463 130.684 119.319 130.504C119.921 130.377 120.705 130.175 121.061 130.055C121.417 129.935 122.136 129.636 122.66 129.391C123.184 129.147 123.947 128.727 124.354 128.458C124.762 128.19 125.458 127.661 125.9 127.284C126.343 126.907 126.997 126.252 127.354 125.828C127.711 125.405 128.222 124.728 128.49 124.323C128.757 123.918 129.177 123.158 129.423 122.635C129.669 122.111 129.992 121.303 130.141 120.838C130.29 120.374 130.493 119.567 130.592 119.045C130.712 118.42 130.773 117.572 130.773 116.565C130.772 115.528 130.71 114.712 130.58 114.033C130.475 113.481 130.275 112.674 130.135 112.239C129.996 111.804 129.626 110.923 129.314 110.281C129.002 109.64 128.464 108.735 128.12 108.271C127.775 107.807 127.193 107.105 126.825 106.713C126.457 106.32 125.687 105.645 125.113 105.213C124.512 104.761 123.567 104.184 122.888 103.856C122.239 103.543 121.351 103.17 120.916 103.028C120.48 102.886 119.673 102.693 119.121 102.599C118.57 102.504 117.952 102.407 117.749 102.383C117.545 102.359 116.826 102.358 116.15 102.381C115.474 102.404 114.453 102.514 113.88 102.625ZM142.849 136.114C148.958 142.224 149.326 142.615 149.653 143.313C149.979 144.011 149.998 144.119 150 145.265C150.002 146.415 149.984 146.516 149.663 147.195C149.461 147.621 149.077 148.169 148.716 148.547C148.288 148.996 147.879 149.294 147.33 149.558C146.692 149.865 146.392 149.943 145.678 149.987C145.151 150.02 144.579 149.989 144.236 149.909C143.924 149.836 143.405 149.639 143.085 149.471C142.624 149.23 141.155 147.819 136.078 142.745L129.654 136.324L130.168 135.974C130.45 135.781 131.014 135.364 131.421 135.047C131.827 134.73 132.73 133.896 133.427 133.194C134.124 132.492 135.046 131.442 135.476 130.862C135.906 130.282 136.288 129.773 136.324 129.73C136.36 129.688 139.296 132.561 142.849 136.114Z" fill="#16639D"/>
<path d="M118.861 106L118.352 120.423H114.648L114.123 106H118.861ZM114 124.889C114 124.28 114.226 123.776 114.679 123.376C115.142 122.967 115.749 122.763 116.5 122.763C117.261 122.763 117.868 122.967 118.321 123.376C118.774 123.776 119 124.28 119 124.889C119 125.478 118.774 125.978 118.321 126.387C117.868 126.796 117.261 127 116.5 127C115.749 127 115.142 126.796 114.679 126.387C114.226 125.978 114 125.478 114 124.889Z" fill="#F44336"/>
</svg>
