<svg width="150" height="150" viewBox="0 0 150 150" fill="none" xmlns="http://www.w3.org/2000/svg">
<g clip-path="url(#clip0_1492_1017)">
<path fill-rule="evenodd" clip-rule="evenodd" d="M0 33H15V138H79.6829C83.8016 144.641 89.9103 149.919 97.1762 153H15C6.75 153 0 146.25 0 138V33ZM149.502 111.829C149.827 110.606 150 109.322 150 108V18C150 9.75 143.25 3 135 3H45C36.75 3 30 9.75 30 18V108C30 116.25 36.75 123 45 123H74.326C74.111 121.364 74 119.695 74 118C74 114.539 74.4627 111.186 75.3295 108H45V18H135V87.7485C142.564 93.5082 147.903 102.04 149.502 111.829ZM120 63L75 96.75V29.25L120 63Z" fill="#666666"/>
<path fill-rule="evenodd" clip-rule="evenodd" d="M114.366 96.1524C114.936 96.23 115.91 96.4197 116.53 96.5739C117.15 96.728 118.109 97.021 118.661 97.2251C119.213 97.4292 120.117 97.8227 120.672 98.0998C121.226 98.3769 122.01 98.8054 122.414 99.052C122.818 99.2987 123.504 99.7641 123.94 100.086C124.375 100.409 125.352 101.292 126.11 102.05C126.869 102.808 127.753 103.784 128.075 104.22C128.398 104.655 128.862 105.338 129.106 105.738C129.351 106.137 129.761 106.881 130.018 107.39C130.276 107.899 130.653 108.748 130.858 109.277C131.062 109.806 131.37 110.785 131.542 111.453C131.715 112.12 131.927 113.214 132.015 113.882C132.103 114.551 132.175 115.759 132.175 116.565C132.175 117.372 132.103 118.579 132.015 119.248C131.927 119.917 131.715 121.01 131.542 121.678C131.37 122.345 131.068 123.308 130.872 123.817C130.675 124.326 130.293 125.182 130.024 125.718C129.754 126.254 129.338 127.014 129.098 127.406C128.858 127.798 128.396 128.475 128.071 128.91C127.746 129.346 127.004 130.194 126.422 130.796C125.841 131.398 125.027 132.167 124.615 132.505C124.202 132.843 123.473 133.382 122.994 133.702C122.514 134.023 121.606 134.549 120.974 134.872C120.343 135.195 119.397 135.625 118.872 135.827C118.347 136.03 117.371 136.337 116.703 136.509C116.035 136.681 114.941 136.894 114.272 136.981C113.602 137.069 112.394 137.141 111.587 137.141C110.78 137.141 109.573 137.069 108.903 136.981C108.234 136.894 107.14 136.681 106.472 136.509C105.804 136.337 104.828 136.03 104.303 135.827C103.778 135.625 102.832 135.195 102.2 134.872C101.569 134.549 100.66 134.023 100.181 133.702C99.702 133.382 98.9724 132.843 98.5598 132.505C98.1472 132.167 97.3338 131.398 96.7523 130.796C96.1707 130.194 95.429 129.346 95.104 128.91C94.779 128.475 94.3168 127.798 94.0769 127.406C93.837 127.014 93.4203 126.254 93.1508 125.718C92.8814 125.182 92.4998 124.326 92.303 123.817C92.1063 123.308 91.8044 122.345 91.6322 121.678C91.46 121.01 91.2473 119.917 91.1595 119.248C91.0718 118.579 91 117.372 91 116.565C91 115.759 91.0718 114.551 91.1595 113.882C91.2473 113.214 91.46 112.12 91.6322 111.453C91.8044 110.785 92.1063 109.822 92.303 109.313C92.4998 108.804 92.8814 107.948 93.1508 107.412C93.4203 106.876 93.837 106.116 94.0769 105.724C94.3168 105.332 94.779 104.655 95.104 104.22C95.429 103.784 96.1707 102.936 96.7523 102.334C97.3338 101.732 98.1472 100.963 98.5598 100.625C98.9724 100.287 99.7088 99.7424 100.196 99.4147C100.684 99.0869 101.629 98.5444 102.297 98.2089C102.964 97.8735 103.974 97.4262 104.539 97.2149C105.105 97.0036 106.055 96.7123 106.651 96.5675C107.246 96.4228 108.271 96.2335 108.927 96.1469C109.587 96.0598 110.837 95.9944 111.725 96.0004C112.607 96.0064 113.796 96.0748 114.366 96.1524ZM108.88 102.625C108.308 102.736 107.531 102.929 107.153 103.054C106.776 103.179 105.942 103.536 105.3 103.847C104.658 104.159 103.753 104.695 103.289 105.039C102.824 105.383 102.122 105.966 101.729 106.333C101.336 106.701 100.661 107.471 100.228 108.045C99.7735 108.648 99.2021 109.585 98.8726 110.268C98.5595 110.917 98.2061 111.738 98.0874 112.094C97.9689 112.45 97.7678 113.233 97.6408 113.835C97.4603 114.691 97.4098 115.287 97.4098 116.565C97.4098 117.835 97.4606 118.441 97.6368 119.276C97.7616 119.867 98.0115 120.769 98.1919 121.28C98.3725 121.792 98.6868 122.541 98.8904 122.945C99.0941 123.35 99.4664 123.993 99.7177 124.374C99.969 124.755 100.451 125.396 100.788 125.797C101.126 126.199 101.772 126.848 102.225 127.239C102.678 127.63 103.368 128.16 103.758 128.417C104.148 128.674 104.799 129.051 105.203 129.255C105.608 129.458 106.358 129.772 106.869 129.953C107.381 130.133 108.284 130.383 108.875 130.508C109.71 130.684 110.317 130.734 111.587 130.734C112.866 130.734 113.463 130.684 114.319 130.504C114.921 130.377 115.705 130.175 116.061 130.055C116.417 129.935 117.136 129.636 117.66 129.391C118.184 129.147 118.947 128.727 119.354 128.458C119.762 128.19 120.458 127.661 120.9 127.284C121.343 126.907 121.997 126.252 122.354 125.828C122.711 125.405 123.222 124.728 123.49 124.323C123.757 123.918 124.177 123.158 124.423 122.635C124.669 122.111 124.992 121.303 125.141 120.838C125.29 120.374 125.493 119.567 125.592 119.045C125.712 118.42 125.773 117.572 125.773 116.565C125.772 115.528 125.71 114.712 125.58 114.033C125.475 113.481 125.275 112.674 125.135 112.239C124.996 111.804 124.626 110.923 124.314 110.281C124.002 109.64 123.464 108.735 123.12 108.271C122.775 107.807 122.193 107.105 121.825 106.713C121.457 106.32 120.687 105.645 120.113 105.213C119.512 104.761 118.567 104.184 117.888 103.856C117.239 103.543 116.351 103.17 115.916 103.028C115.48 102.886 114.673 102.693 114.121 102.599C113.57 102.504 112.952 102.407 112.749 102.383C112.545 102.359 111.826 102.358 111.15 102.381C110.474 102.404 109.453 102.514 108.88 102.625ZM137.849 136.114C143.958 142.224 144.326 142.615 144.653 143.313C144.979 144.011 144.998 144.119 145 145.265C145.002 146.415 144.984 146.516 144.663 147.195C144.461 147.621 144.077 148.169 143.716 148.547C143.288 148.996 142.879 149.294 142.33 149.558C141.692 149.865 141.392 149.943 140.678 149.987C140.151 150.02 139.579 149.989 139.236 149.909C138.924 149.836 138.405 149.639 138.085 149.471C137.624 149.23 136.155 147.819 131.078 142.745L124.654 136.324L125.168 135.974C125.45 135.781 126.014 135.364 126.421 135.047C126.827 134.73 127.73 133.896 128.427 133.194C129.124 132.492 130.046 131.442 130.476 130.862C130.906 130.282 131.288 129.773 131.324 129.73C131.36 129.688 134.296 132.561 137.849 136.114Z" fill="#16639D"/>
<path d="M113.861 106L113.352 120.423H109.648L109.123 106H113.861ZM109 124.889C109 124.28 109.226 123.776 109.679 123.376C110.142 122.967 110.749 122.763 111.5 122.763C112.261 122.763 112.868 122.967 113.321 123.376C113.774 123.776 114 124.28 114 124.889C114 125.478 113.774 125.978 113.321 126.387C112.868 126.796 112.261 127 111.5 127C110.749 127 110.142 126.796 109.679 126.387C109.226 125.978 109 125.478 109 124.889Z" fill="#F44336"/>
</g>
<defs>
<clipPath id="clip0_1492_1017">
<rect width="150" height="150" fill="white"/>
</clipPath>
</defs>
</svg>
