<svg width="150" height="150" viewBox="0 0 150 150" fill="none" xmlns="http://www.w3.org/2000/svg">
<g clip-path="url(#clip0_1492_985)">
<path fill-rule="evenodd" clip-rule="evenodd" d="M0 75C0 33.6 33.6 0 75 0C116.4 0 150 33.6 150 75C150 82.2992 148.956 89.3559 147.008 96.0288C143.673 91.3302 139.296 87.4224 134.215 84.6419C134.731 81.5057 135 78.2854 135 75C135 41.925 108.075 15 75 15C41.925 15 15 41.925 15 75C15 88.65 19.65 101.175 27.3 111.225C38.025 98.175 64.05 93.75 75 93.75C77.8272 93.75 81.6594 94.045 85.9736 94.7072C82.7581 98.8464 80.3795 103.668 79.092 108.918C77.6908 108.808 76.3207 108.75 75 108.75C60.9 108.75 41.25 115.35 38.025 122.1C48.225 130.2 61.05 135 75 135C77.3045 135 79.5783 134.869 81.8146 134.614C84.355 139.831 88.0546 144.38 92.5784 147.926C86.9394 149.282 81.0531 150 75 150C33.6 150 0 116.4 0 75ZM48.75 56.25C48.75 41.7 60.45 30 75 30C89.55 30 101.25 41.7 101.25 56.25C101.25 70.8 89.55 82.5 75 82.5C60.45 82.5 48.75 70.8 48.75 56.25ZM63.75 56.25C63.75 62.475 68.775 67.5 75 67.5C81.225 67.5 86.25 62.475 86.25 56.25C86.25 50.025 81.225 45 75 45C68.775 45 63.75 50.025 63.75 56.25Z" fill="#666666"/>
<path fill-rule="evenodd" clip-rule="evenodd" d="M118.366 96.1524C118.936 96.23 119.91 96.4197 120.53 96.5739C121.15 96.728 122.109 97.021 122.661 97.2251C123.213 97.4292 124.117 97.8227 124.672 98.0998C125.226 98.3769 126.01 98.8054 126.414 99.052C126.818 99.2987 127.504 99.7641 127.94 100.086C128.375 100.409 129.352 101.292 130.11 102.05C130.869 102.808 131.753 103.784 132.075 104.22C132.398 104.655 132.862 105.338 133.106 105.738C133.351 106.137 133.761 106.881 134.018 107.39C134.276 107.899 134.653 108.748 134.858 109.277C135.062 109.806 135.37 110.785 135.542 111.453C135.715 112.12 135.927 113.214 136.015 113.882C136.103 114.551 136.175 115.759 136.175 116.565C136.175 117.372 136.103 118.579 136.015 119.248C135.927 119.917 135.715 121.01 135.542 121.678C135.37 122.345 135.068 123.308 134.872 123.817C134.675 124.326 134.293 125.182 134.024 125.718C133.754 126.254 133.338 127.014 133.098 127.406C132.858 127.798 132.396 128.475 132.071 128.91C131.746 129.346 131.004 130.194 130.422 130.796C129.841 131.398 129.027 132.167 128.615 132.505C128.202 132.843 127.473 133.382 126.994 133.702C126.514 134.023 125.606 134.549 124.974 134.872C124.343 135.195 123.397 135.625 122.872 135.827C122.347 136.03 121.371 136.337 120.703 136.509C120.035 136.681 118.941 136.894 118.272 136.981C117.602 137.069 116.394 137.141 115.587 137.141C114.78 137.141 113.573 137.069 112.903 136.981C112.234 136.894 111.14 136.681 110.472 136.509C109.804 136.337 108.828 136.03 108.303 135.827C107.778 135.625 106.832 135.195 106.2 134.872C105.569 134.549 104.66 134.023 104.181 133.702C103.702 133.382 102.972 132.843 102.56 132.505C102.147 132.167 101.334 131.398 100.752 130.796C100.171 130.194 99.429 129.346 99.104 128.91C98.779 128.475 98.3168 127.798 98.0769 127.406C97.837 127.014 97.4203 126.254 97.1508 125.718C96.8814 125.182 96.4998 124.326 96.303 123.817C96.1063 123.308 95.8044 122.345 95.6322 121.678C95.46 121.01 95.2473 119.917 95.1595 119.248C95.0718 118.579 95 117.372 95 116.565C95 115.759 95.0718 114.551 95.1595 113.882C95.2473 113.214 95.46 112.12 95.6322 111.453C95.8044 110.785 96.1063 109.822 96.303 109.313C96.4998 108.804 96.8814 107.948 97.1508 107.412C97.4203 106.876 97.837 106.116 98.0769 105.724C98.3168 105.332 98.779 104.655 99.104 104.22C99.429 103.784 100.171 102.936 100.752 102.334C101.334 101.732 102.147 100.963 102.56 100.625C102.972 100.287 103.709 99.7424 104.196 99.4147C104.684 99.0869 105.629 98.5444 106.297 98.2089C106.964 97.8735 107.974 97.4262 108.539 97.2149C109.105 97.0036 110.055 96.7123 110.651 96.5675C111.246 96.4228 112.271 96.2335 112.927 96.1469C113.587 96.0598 114.837 95.9944 115.725 96.0004C116.607 96.0064 117.796 96.0748 118.366 96.1524ZM112.88 102.625C112.308 102.736 111.531 102.929 111.153 103.054C110.776 103.179 109.942 103.536 109.3 103.847C108.658 104.159 107.753 104.695 107.289 105.039C106.824 105.383 106.122 105.966 105.729 106.333C105.336 106.701 104.661 107.471 104.228 108.045C103.773 108.648 103.202 109.585 102.873 110.268C102.559 110.917 102.206 111.738 102.087 112.094C101.969 112.45 101.768 113.233 101.641 113.835C101.46 114.691 101.41 115.287 101.41 116.565C101.41 117.835 101.461 118.441 101.637 119.276C101.762 119.867 102.012 120.769 102.192 121.28C102.372 121.792 102.687 122.541 102.89 122.945C103.094 123.35 103.466 123.993 103.718 124.374C103.969 124.755 104.451 125.396 104.788 125.797C105.126 126.199 105.772 126.848 106.225 127.239C106.678 127.63 107.368 128.16 107.758 128.417C108.148 128.674 108.799 129.051 109.203 129.255C109.608 129.458 110.358 129.772 110.869 129.953C111.381 130.133 112.284 130.383 112.875 130.508C113.71 130.684 114.317 130.734 115.587 130.734C116.866 130.734 117.463 130.684 118.319 130.504C118.921 130.377 119.705 130.175 120.061 130.055C120.417 129.935 121.136 129.636 121.66 129.391C122.184 129.147 122.947 128.727 123.354 128.458C123.762 128.19 124.458 127.661 124.9 127.284C125.343 126.907 125.997 126.252 126.354 125.828C126.711 125.405 127.222 124.728 127.49 124.323C127.757 123.918 128.177 123.158 128.423 122.635C128.669 122.111 128.992 121.303 129.141 120.838C129.29 120.374 129.493 119.567 129.592 119.045C129.712 118.42 129.773 117.572 129.773 116.565C129.772 115.528 129.71 114.712 129.58 114.033C129.475 113.481 129.275 112.674 129.135 112.239C128.996 111.804 128.626 110.923 128.314 110.281C128.002 109.64 127.464 108.735 127.12 108.271C126.775 107.807 126.193 107.105 125.825 106.713C125.457 106.32 124.687 105.645 124.113 105.213C123.512 104.761 122.567 104.184 121.888 103.856C121.239 103.543 120.351 103.17 119.916 103.028C119.48 102.886 118.673 102.693 118.121 102.599C117.57 102.504 116.952 102.407 116.749 102.383C116.545 102.359 115.826 102.358 115.15 102.381C114.474 102.404 113.453 102.514 112.88 102.625ZM141.849 136.114C147.958 142.224 148.326 142.615 148.653 143.313C148.979 144.011 148.998 144.119 149 145.265C149.002 146.415 148.984 146.516 148.663 147.195C148.461 147.621 148.077 148.169 147.716 148.547C147.288 148.996 146.879 149.294 146.33 149.558C145.692 149.865 145.392 149.943 144.678 149.987C144.151 150.02 143.579 149.989 143.236 149.909C142.924 149.836 142.405 149.639 142.085 149.471C141.624 149.23 140.155 147.819 135.078 142.745L128.654 136.324L129.168 135.974C129.45 135.781 130.014 135.364 130.421 135.047C130.827 134.73 131.73 133.896 132.427 133.194C133.124 132.492 134.046 131.442 134.476 130.862C134.906 130.282 135.288 129.773 135.324 129.73C135.36 129.688 138.296 132.561 141.849 136.114Z" fill="#16639D"/>
<path d="M117.861 106L117.352 120.423H113.648L113.123 106H117.861ZM113 124.889C113 124.28 113.226 123.776 113.679 123.376C114.142 122.967 114.749 122.763 115.5 122.763C116.261 122.763 116.868 122.967 117.321 123.376C117.774 123.776 118 124.28 118 124.889C118 125.478 117.774 125.978 117.321 126.387C116.868 126.796 116.261 127 115.5 127C114.749 127 114.142 126.796 113.679 126.387C113.226 125.978 113 125.478 113 124.889Z" fill="#F44336"/>
</g>
<defs>
<clipPath id="clip0_1492_985">
<rect width="150" height="150" fill="white"/>
</clipPath>
</defs>
</svg>
