<svg width="162" height="46" viewBox="0 0 162 46" fill="none" xmlns="http://www.w3.org/2000/svg">
<g clip-path="url(#clip0_174_64)">
<path fill-rule="evenodd" clip-rule="evenodd" d="M9.12422 0.351227C6.45731 1.02766 4.50322 2.3408 3.61077 4.05688C2.70552 5.7975 0.0222237 15.4105 0.000478556 16.9898C-0.0108409 17.8317 0.179504 18.6825 0.480362 19.1325C1.74605 21.0277 6.00304 21.6136 8.7331 20.2686C10.5186 19.3888 10.4647 19.3932 10.4647 20.1348C10.4647 20.6914 10.619 20.7259 12.7631 20.6461L15.0612 20.5608L16.0419 17.2005C16.581 15.3524 17.2793 12.9525 17.5929 11.8679L18.1637 9.89557H14.0088C9.40542 9.89557 9.71849 9.75882 9.16205 12.014C8.99285 12.7001 9.0569 12.8175 9.59844 12.8175C10.1698 12.8175 10.2127 12.9268 10.0274 13.9133C9.91449 14.5161 9.57193 15.5677 9.26631 16.2509C8.78732 17.3221 8.58595 17.4927 7.80044 17.4927C7.1183 17.4927 6.89012 17.3592 6.89012 16.9603C6.89012 16.1503 10.4319 4.29648 10.806 3.85438C11.2415 3.33924 12.229 3.36086 12.436 3.89003C12.5269 4.12233 12.3887 5.03019 12.1286 5.90707C11.8689 6.78425 11.6562 7.58019 11.6562 7.67603C11.6562 7.77188 13.2436 7.85018 15.1837 7.85018H18.7109L19.0561 6.72055C19.2459 6.09934 19.401 4.93493 19.401 4.13343C19.401 2.4343 18.6257 1.39466 16.7949 0.638749C15.3219 0.0303938 11.0244 -0.130607 9.12422 0.351227ZM47.8485 0.159545C45.9576 0.57505 44.2465 1.29941 43.3678 2.0562C41.6618 3.52566 40.5523 7.67662 41.4337 9.29218C41.5918 9.58204 43.1486 10.7117 44.8929 11.8024L48.0645 13.7859L47.9173 15.0666C47.7386 16.6211 47.0016 17.4927 45.8661 17.4927C44.8658 17.4927 44.8042 17.1102 45.4622 14.9824C45.7062 14.1935 45.9072 13.5109 45.909 13.4653C45.9108 13.4201 44.4128 13.4201 42.5802 13.4653L39.2478 13.548L38.8624 15.009C38.2809 17.2128 38.3655 18.208 39.2189 19.2029C40.4066 20.5874 42.4256 21.0978 46.0836 20.9383C48.7803 20.8205 49.3885 20.6908 51.0891 19.8694C53.2693 18.8167 53.9229 17.997 54.7069 15.3325C55.3241 13.2351 55.1468 11.5614 54.2029 10.5688C53.8207 10.167 52.3688 9.17793 50.9762 8.37088C49.5836 7.56354 48.34 6.75474 48.2128 6.57328C47.8798 6.09846 48.2173 4.62052 48.8038 3.985C49.0793 3.68608 49.5804 3.48008 49.9173 3.52741C50.5384 3.61449 50.6197 4.04694 50.3453 5.8048L50.2315 6.5353H53.5082H56.7849L57.1298 4.82156C57.6937 2.0188 57.0988 1.13928 54.1108 0.358532C52.6935 -0.0116827 49.141 -0.124471 47.8485 0.159545ZM83.5166 1.70001C83.3521 2.33496 83.2914 2.92666 83.381 3.0149C83.471 3.10285 85.0491 3.17502 86.888 3.17502H90.2316L90.4271 2.37148C90.5346 1.92968 90.6922 1.33798 90.7774 1.05659C90.9188 0.58966 90.6231 0.545246 87.3738 0.545246H83.8153L83.5166 1.70001ZM132.654 2.47024C130.742 3.40528 129.559 4.74033 127.164 8.66658C124.082 13.7178 122.112 15.5329 119.316 15.8967C114.974 16.4618 106.546 12.2606 96.3715 4.45836C92.4937 1.48525 93.4595 2.78406 99.6708 8.89654C104.879 14.022 108.504 16.8361 112.19 18.6162C115.913 20.4138 118.408 20.7793 121.296 19.9504C123.633 19.2798 125.984 16.8239 128.127 12.8143C130.651 8.09329 132.711 6.3854 135.872 6.39592C139.643 6.40848 148.221 9.374 157.096 13.7339C158.693 14.5184 160 15.1075 160 15.0429C160 14.8039 154.081 10.4861 150.766 8.30718C146.759 5.67361 140.942 2.77442 138.416 2.15175C135.857 1.52119 134.435 1.59979 132.654 2.47024ZM26.4709 4.07733C23.8746 4.6775 21.9074 6.23083 20.953 8.43458C20.2432 10.0738 18.5131 16.3882 18.5113 17.3466C18.5089 18.6787 19.4839 20.005 20.793 20.4495C22.507 21.0312 27.5588 20.9666 29.3895 20.3393C31.273 19.6938 32.9465 18.3556 33.7132 16.8814C34.5396 15.2925 36.3802 8.83138 36.3802 7.51942C36.3802 5.99006 35.2503 4.76341 33.3248 4.20239C31.6796 3.72319 28.2725 3.66095 26.4709 4.07733ZM100.463 4.33563C98.8454 5.07548 98.8678 5.10674 102.971 7.84668L106.056 9.90667L106.414 8.737C106.827 7.38325 107.649 6.5353 108.307 6.78279C108.878 6.99784 108.88 7.60328 108.316 9.42601C107.908 10.745 107.914 10.8847 108.394 11.2292C109.38 11.9369 113.518 13.8043 113.701 13.6243C114.03 13.3017 115.615 7.14628 115.616 6.19079C115.616 4.64507 114.256 3.74861 111.948 3.77228C110.476 3.78747 108.661 4.37333 107.846 5.09652C107.287 5.59325 107.232 5.58098 106.371 4.77247C105.166 3.63962 102.428 3.43712 100.463 4.33563ZM58.5841 4.41686C58.5188 4.6179 58.1712 7.41189 57.8117 10.6261C57.4521 13.8402 57.0592 17.3247 56.9386 18.3693C56.8179 19.4139 56.7753 20.3673 56.8442 20.4877C56.9127 20.6081 58.5784 20.7069 60.5456 20.7069H64.1222L65.9074 17.1275C67.6467 13.6398 67.6884 13.5854 67.5386 15.009C67.454 15.8126 67.2946 17.4235 67.1847 18.5884L66.9849 20.7069H70.6792H74.3734L78.0192 12.5984C80.0245 8.13858 81.6637 4.39144 81.6617 4.27076C81.6596 4.15009 80.3858 4.05162 78.8312 4.05162H76.0046L74.8599 6.31615C74.2305 7.56179 73.3368 9.46984 72.8742 10.5565C72.4116 11.6432 71.9991 12.4979 71.9571 12.4558C71.9154 12.4137 72.131 10.7356 72.4366 8.72678C72.742 6.71792 72.9981 4.84406 73.0056 4.56296C73.0178 4.11152 72.6931 4.05162 70.23 4.05162H67.4406L65.561 8.21543C63.9521 11.7802 62.7779 14.0269 63.309 12.5253C63.4749 12.0561 64.3808 5.28411 64.3808 4.51329C64.3808 4.12496 63.9307 4.05162 61.5417 4.05162C59.5319 4.05162 58.6678 4.15827 58.5841 4.41686ZM82.5666 5.14736C82.3986 5.75016 81.3423 9.43068 80.2193 13.3263C79.0963 17.2221 78.2456 20.4766 78.329 20.5581C78.4121 20.64 79.9816 20.7069 81.8166 20.7069H85.1528L86.9758 14.3516C87.9785 10.8563 89.0592 7.10859 89.3776 6.02395L89.9564 4.05162H86.4143H82.8722L82.5666 5.14736ZM92.231 4.41686C92.0046 5.0448 87.6154 20.4053 87.6154 20.5698C87.6154 20.6557 89.1048 20.6888 90.9251 20.6435L94.2348 20.5608L95.8377 15.009C96.7192 11.9556 97.4415 9.21679 97.443 8.92313C97.4442 8.62948 96.5404 7.4154 95.4347 6.22557C93.5247 4.17054 92.5235 3.60543 92.231 4.41686ZM98.1901 4.34381C98.2914 4.50452 98.5002 4.63601 98.6545 4.63601C98.8088 4.63601 98.9348 4.50452 98.9348 4.34381C98.9348 4.18311 98.7257 4.05162 98.4704 4.05162C98.2151 4.05162 98.0888 4.18311 98.1901 4.34381ZM29.8268 7.1793C29.8268 7.72454 28.3508 13.0653 27.4045 15.9452C26.809 17.7568 25.9791 18.5104 25.3065 17.8506C24.9437 17.4947 27.599 7.93054 28.2656 7.19274C28.8608 6.53413 29.8268 6.52565 29.8268 7.1793ZM134.233 9.5572C132.545 10.57 131.835 12.1139 132.311 13.7409C133.532 17.9164 139.744 17.0193 139.744 12.6676C139.744 9.91514 136.598 8.13917 134.233 9.5572ZM98.67 12.4429C97.4114 16.6442 96.5517 19.8174 96.5517 20.2627C96.5517 20.6628 96.9914 20.7154 99.7498 20.6438L102.948 20.5608L103.769 17.817L104.59 15.0736L102.616 13.2991C101.53 12.3231 100.332 11.2856 99.9526 10.9931L99.2636 10.4613L98.67 12.4429ZM105.699 18.4903C105.419 19.5211 105.19 20.4416 105.19 20.5357C105.19 20.6297 106.65 20.7069 108.435 20.7069C111.037 20.7069 111.713 20.6204 111.851 20.2709C111.963 19.9825 111.697 19.6716 111.063 19.352C110.536 19.0866 109.342 18.3623 108.409 17.7425C107.476 17.1231 106.599 16.6161 106.46 16.6161C106.322 16.6161 105.979 17.4594 105.699 18.4903Z" fill="black"/>
<path d="M156.146 33.7279C156.606 34.7169 156.642 35.9178 156.465 36.9774C156.429 37.26 156.358 37.5426 156.252 37.7898C156.146 38.0724 156.039 38.3196 155.897 38.5669C155.614 39.0614 155.259 39.5205 154.869 39.9091C154.657 40.121 154.479 40.2976 154.231 40.4742C154.125 40.5802 154.019 40.6508 153.912 40.7214C153.841 40.7568 153.806 40.7921 153.735 40.8274C153.664 40.8627 153.629 40.898 153.558 40.9334L153.381 41.0393C153.31 41.0746 153.274 41.11 153.203 41.1453C153.097 41.2159 152.955 41.2513 152.813 41.3219C152.742 41.3572 152.672 41.3572 152.636 41.3925C152.565 41.4279 152.494 41.4279 152.459 41.4632L152.246 41.5338L152.033 41.6045L151.927 41.6398C151.892 41.6398 151.856 41.6398 151.821 41.6751L151.608 41.7104C151.537 41.7104 151.466 41.7457 151.395 41.7457C151.324 41.7457 151.254 41.7811 151.183 41.7811L150.97 41.8164C150.899 41.8164 150.828 41.8164 150.757 41.8517C150.615 41.8517 150.474 41.8517 150.332 41.887C149.8 41.887 149.233 41.8164 148.701 41.7104V41.6398C148.949 41.6751 149.233 41.6751 149.481 41.6751C149.729 41.6751 150.013 41.6751 150.261 41.6398C150.793 41.5691 151.289 41.4632 151.75 41.2512L151.927 41.1806L152.104 41.11C152.175 41.0746 152.211 41.0393 152.282 41.0393C152.352 41.0393 152.388 40.9687 152.459 40.9334C152.565 40.8627 152.672 40.7921 152.778 40.7214C152.813 40.6861 152.884 40.6508 152.955 40.6155L153.097 40.5095C153.132 40.4742 153.203 40.4389 153.239 40.4036C153.274 40.3682 153.345 40.3329 153.381 40.2976C153.487 40.2269 153.593 40.121 153.664 40.0503C153.841 39.8737 154.019 39.6971 154.196 39.4852C154.515 39.0967 154.763 38.6728 154.976 38.2137C155.011 38.143 155.011 38.1077 155.047 38.0371C155.082 37.9664 155.082 37.9311 155.118 37.8605C155.118 37.8251 155.153 37.7898 155.153 37.7898L155.188 37.7192C155.224 37.6485 155.224 37.6132 155.259 37.5426C155.33 37.2953 155.401 37.0834 155.472 36.8362L155.508 36.7302V36.6949V36.6596L155.543 36.4829L155.578 36.3063C155.578 36.2357 155.614 36.1651 155.614 36.1297C155.649 35.8825 155.72 35.6352 155.756 35.388C155.827 34.8582 155.862 34.3284 155.862 33.8339L156.146 33.7279Z" fill="black"/>
<path d="M153.486 29.807C153.663 29.807 153.84 29.8423 153.982 29.8777C154.053 29.913 154.124 29.9483 154.195 29.9836C154.265 30.019 154.336 30.0543 154.407 30.0896C154.478 30.1249 154.514 30.1956 154.584 30.2309C154.62 30.3015 154.691 30.3368 154.726 30.4075C154.762 30.4781 154.797 30.5488 154.833 30.6194C154.868 30.69 154.904 30.7607 154.939 30.8313C155.116 31.0786 155.258 31.3611 155.4 31.6084C155.542 31.891 155.648 32.1735 155.719 32.4561L155.648 32.4914C155.471 32.2795 155.258 32.0322 155.045 31.8556C154.833 31.6437 154.62 31.4671 154.407 31.2552C154.301 31.1492 154.195 31.0786 154.053 31.0079C153.982 30.9726 153.946 30.9373 153.876 30.8667C153.84 30.8313 153.769 30.7607 153.734 30.7254C153.663 30.6194 153.556 30.4781 153.521 30.3368C153.45 30.1956 153.379 30.019 153.344 29.8777L153.486 29.807Z" fill="black"/>
<path d="M152.104 28.8185C150.118 27.9002 147.85 27.8296 145.794 28.6066C142.39 29.9135 140.334 33.4102 140.902 37.0483C140.937 37.4015 141.043 37.7194 141.114 38.0726L141.291 38.5671V38.6024L141.327 38.673C141.327 38.7084 141.362 38.7437 141.362 38.779C141.398 38.8496 141.433 38.9556 141.469 39.0262C141.752 39.662 142.107 40.2625 142.532 40.8276C142.958 41.3927 143.454 41.8872 143.986 42.3111C144.517 42.7349 145.12 43.0881 145.758 43.3707C146.396 43.6533 147.07 43.8652 147.743 44.0065C148.417 44.1478 149.126 44.2184 149.835 44.2184C150.189 44.2184 150.544 44.1831 150.863 44.1478C151.217 44.1124 151.536 44.0418 151.891 43.9712C152.564 43.8299 153.238 43.5826 153.841 43.3001C157.74 41.4281 159.867 37.1189 158.91 32.9158C158.591 31.5382 157.988 30.2667 157.102 29.1718C156.677 28.6419 156.145 28.1474 155.613 27.6883C155.046 27.2644 154.443 26.8759 153.841 26.558C152.564 25.9222 151.146 25.569 149.728 25.5337C149.019 25.4984 148.311 25.569 147.602 25.7103C146.893 25.8516 146.219 26.0635 145.545 26.3461C144.872 26.6287 144.269 27.0172 143.702 27.441C143.135 27.8649 142.639 28.3947 142.213 28.9951C142.603 28.3594 143.064 27.7942 143.631 27.3351C144.198 26.8406 144.801 26.4521 145.475 26.1342C146.786 25.4631 148.275 25.1099 149.764 25.1099C151.253 25.1099 152.742 25.4278 154.089 26.0282C154.762 26.3461 155.436 26.7346 156.003 27.1585C156.606 27.6176 157.137 28.1121 157.634 28.7126C158.13 29.2777 158.555 29.9135 158.875 30.5846C159.229 31.2557 159.477 31.9621 159.654 32.7038C160.931 38.0726 157.598 43.4767 152.21 44.7482C152.175 44.7482 152.104 44.7835 152.068 44.7835C151.324 44.9601 150.579 45.0308 149.799 45.0308C149.055 45.0308 148.275 44.9601 147.531 44.7835C146.786 44.6423 146.077 44.395 145.368 44.0771C144.695 43.7592 144.021 43.3707 143.454 42.8762C142.851 42.417 142.32 41.8519 141.894 41.2515C141.433 40.651 141.079 39.9799 140.76 39.3088C140.724 39.2382 140.689 39.1322 140.653 39.0616C140.653 39.0262 140.618 38.9909 140.618 38.9203L140.582 38.8496V38.8143V38.779L140.441 38.2139C140.334 37.8607 140.263 37.4721 140.228 37.1189C139.803 34.0813 141.15 31.0438 143.702 29.2777C145.545 28.0062 147.85 27.547 150.048 28.0415C150.757 28.1828 151.43 28.4653 152.104 28.8185Z" fill="black"/>
<path d="M120.978 35.5649V37.9667C120.978 38.32 120.73 38.5672 120.376 38.5672C120.128 38.5672 119.773 38.32 119.773 37.9667C119.241 38.4259 118.639 38.5672 117.965 38.5672C116.228 38.5672 114.846 37.2957 114.846 35.5296C114.846 33.7989 116.228 32.4214 117.965 32.4214C119.702 32.4567 120.978 33.8342 120.978 35.5649ZM119.773 35.5649C119.773 34.5406 118.993 33.6576 117.965 33.6576C116.937 33.6576 116.051 34.5406 116.051 35.5649C116.051 36.5892 116.937 37.3663 117.965 37.3663C118.993 37.3663 119.773 36.5892 119.773 35.5649Z" fill="black"/>
<path d="M126.118 36.7658C126.118 37.1191 125.87 38.6025 124.062 38.6025C123.211 38.6025 122.183 38.214 121.864 37.3663C121.828 37.331 121.828 37.2603 121.828 37.1897C121.828 36.8718 122.112 36.5892 122.467 36.5892C122.644 36.5892 122.821 36.6599 122.927 36.8365C123.211 37.225 123.495 37.4016 124.026 37.4016C124.806 37.4016 124.877 36.8718 124.877 36.7658C124.877 36.342 124.452 36.1654 123.849 36.1301C123.105 36.0594 121.793 35.6356 121.793 34.2934C121.793 33.1278 122.786 32.4214 123.884 32.4214C124.274 32.4214 124.7 32.5273 125.054 32.704C125.161 32.7746 126.082 33.1631 126.082 33.9049C126.047 34.2227 125.799 34.5053 125.444 34.5053C125.161 34.5053 125.019 34.2934 124.877 34.0815C124.7 33.7283 124.204 33.6223 123.849 33.6223C123.388 33.6223 122.998 33.8695 122.998 34.2934C122.998 35.1764 124.345 34.6113 125.338 35.3883C125.834 35.7415 126.118 36.2714 126.118 36.7658Z" fill="black"/>
<path d="M128.104 38.0017V41.0747C128.104 41.3925 127.82 41.6751 127.501 41.6751C127.147 41.6751 126.898 41.3925 126.898 41.0747V35.5646C126.898 33.8692 128.281 32.4917 129.983 32.4917C131.684 32.4917 133.067 33.8692 133.067 35.5646C133.067 37.26 131.684 38.6375 129.983 38.6375C129.274 38.6375 128.635 38.3903 128.104 38.0017ZM128.104 35.5646C128.104 36.5889 128.955 37.4366 129.983 37.4366C131.011 37.4366 131.861 36.5889 131.861 35.5646C131.861 34.5403 131.011 33.6926 129.983 33.6926C128.955 33.6926 128.104 34.5403 128.104 35.5646Z" fill="black"/>
<path d="M133.953 31.0437C133.846 30.9378 133.775 30.7612 133.775 30.6199C133.775 30.4433 133.846 30.302 133.953 30.196C134.059 30.0901 134.236 30.0194 134.378 30.0194C134.555 30.0194 134.697 30.0901 134.803 30.196C134.91 30.302 134.981 30.4786 134.981 30.6199C134.981 30.7965 134.91 30.9378 134.803 31.0437C134.697 31.1497 134.52 31.2203 134.378 31.2203C134.236 31.2203 134.059 31.1497 133.953 31.0437ZM133.775 38.0019V33.057C133.775 32.7391 134.059 32.4566 134.378 32.4566C134.697 32.4566 134.981 32.7391 134.981 33.057V38.0019C134.981 38.3551 134.697 38.6024 134.378 38.6024C134.059 38.6024 133.775 38.3198 133.775 38.0019Z" fill="black"/>
<path d="M139.411 33.0218C139.411 33.3397 139.128 33.6223 138.809 33.6223C137.781 33.6223 136.93 34.47 136.93 35.4943V37.9667C136.93 38.2846 136.646 38.5672 136.327 38.5672C135.973 38.5672 135.725 38.2846 135.725 37.9667V35.4943C135.725 33.7989 137.107 32.4214 138.809 32.4214C139.128 32.4214 139.411 32.704 139.411 33.0218Z" fill="black"/>
<path d="M140.333 31.0437C140.227 30.9378 140.156 30.7612 140.156 30.6199C140.156 30.4433 140.227 30.302 140.333 30.196C140.44 30.0901 140.617 30.0194 140.759 30.0194C140.936 30.0194 141.078 30.0901 141.184 30.196C141.291 30.302 141.362 30.4786 141.362 30.6199C141.362 30.7965 141.291 30.9378 141.184 31.0437C141.078 31.1497 140.901 31.2203 140.759 31.2203C140.617 31.2203 140.44 31.1497 140.333 31.0437ZM140.156 38.0019V33.057C140.156 32.7391 140.44 32.4566 140.759 32.4566C141.078 32.4566 141.362 32.7391 141.362 33.057V38.0019C141.362 38.3551 141.078 38.6024 140.759 38.6024C140.404 38.6024 140.156 38.3198 140.156 38.0019Z" fill="black"/>
<path d="M142.07 35.5293C142.07 33.834 143.453 32.4564 145.154 32.4564C146.253 32.4564 147.281 33.0569 147.849 33.9752C148.026 34.2578 147.92 34.6463 147.636 34.8229C147.352 34.9995 146.962 34.8936 146.785 34.611C146.466 34.0459 145.828 33.6927 145.154 33.6927C144.126 33.6927 143.276 34.5404 143.276 35.5647C143.276 36.589 144.126 37.4367 145.154 37.4367C145.793 37.4367 146.395 37.1188 146.714 36.589C146.891 36.3064 147.281 36.2358 147.565 36.4124C147.849 36.589 147.92 36.9775 147.742 37.2601C147.175 38.1431 146.218 38.6729 145.154 38.6729C143.453 38.6023 142.07 37.2247 142.07 35.5293Z" fill="black"/>
<path d="M153.415 37.6132C153.628 37.8958 153.592 38.249 153.309 38.4609C153.202 38.5316 153.06 38.6022 152.954 38.6022C152.777 38.6022 152.6 38.5316 152.458 38.355L151.004 36.5183L149.551 38.355C149.445 38.4962 149.267 38.6022 149.055 38.6022C148.913 38.6022 148.806 38.5669 148.7 38.4609C148.417 38.249 148.381 37.8958 148.594 37.6132L150.224 35.5293L148.594 33.4454C148.381 33.1628 148.417 32.8096 148.7 32.5977C148.948 32.3857 149.338 32.4211 149.551 32.7036L151.004 34.5403L152.458 32.7036C152.67 32.4211 153.06 32.3857 153.309 32.5977C153.592 32.8096 153.628 33.1981 153.415 33.4454L151.784 35.5293L153.415 37.6132Z" fill="black"/>
<path d="M114.474 25.6048C114.474 25.3037 114.474 25.0623 114.455 24.8371H114.843L114.862 25.2413C114.947 25.0965 115.069 24.9773 115.216 24.8966C115.363 24.8159 115.53 24.7766 115.697 24.7829C116.267 24.7829 116.696 25.2657 116.696 25.9791C116.696 26.8254 116.18 27.2432 115.627 27.2432C115.484 27.2503 115.342 27.2197 115.215 27.1544C115.088 27.0892 114.98 26.9916 114.903 26.8715V28.1519H114.48L114.474 25.6048ZM114.897 26.2314C114.899 26.2897 114.905 26.3477 114.916 26.405C114.952 26.5484 115.035 26.6757 115.151 26.7667C115.268 26.8576 115.411 26.9069 115.559 26.9068C116.009 26.9068 116.272 26.5379 116.272 25.9981C116.272 25.5261 116.026 25.1247 115.573 25.1247C115.422 25.1287 115.276 25.1829 115.159 25.2786C115.042 25.3744 114.961 25.5063 114.927 25.6536C114.909 25.7098 114.899 25.7682 114.897 25.8272V26.2314Z" fill="black"/>
<path d="M119.37 25.9923C119.384 26.1533 119.364 26.3154 119.311 26.468C119.258 26.6207 119.173 26.7605 119.063 26.8784C118.953 26.9963 118.818 27.0897 118.67 27.1525C118.521 27.2152 118.36 27.246 118.199 27.2427C118.043 27.2448 117.888 27.2142 117.745 27.1531C117.602 27.0919 117.473 27.0015 117.367 26.8875C117.26 26.7736 117.179 26.6388 117.128 26.4916C117.077 26.3444 117.057 26.1882 117.07 26.0329C117.07 25.2436 117.586 24.7825 118.237 24.7825C118.393 24.7792 118.548 24.8089 118.692 24.8696C118.836 24.9303 118.966 25.0206 119.073 25.1347C119.18 25.2488 119.262 25.3841 119.313 25.5319C119.364 25.6796 119.384 25.8365 119.37 25.9923ZM117.504 26.0167C117.504 26.5321 117.8 26.9199 118.218 26.9199C118.635 26.9199 118.931 26.5375 118.931 26.0085C118.931 25.6098 118.733 25.1025 118.228 25.1025C117.724 25.1025 117.504 25.5691 117.504 26.0167Z" fill="black"/>
<path d="M120.045 24.8359L120.357 26.0322C120.425 26.3034 120.487 26.5367 120.53 26.7781H120.547C120.598 26.5421 120.677 26.2899 120.753 26.0349L121.138 24.8359H121.499L121.862 26.0105C121.949 26.2817 122.017 26.553 122.071 26.7781C122.118 26.521 122.179 26.2666 122.253 26.0159L122.587 24.8359H123.01L122.253 27.1877H121.862L121.504 26.0647C121.42 25.8111 121.351 25.553 121.295 25.2916C121.24 25.5554 121.169 25.8154 121.081 26.0701L120.704 27.1877H120.313L119.605 24.8359H120.045Z" fill="black"/>
<path d="M123.642 26.089C123.633 26.1981 123.648 26.3079 123.685 26.4108C123.723 26.5136 123.783 26.607 123.86 26.6844C123.938 26.7619 124.031 26.8215 124.134 26.8592C124.237 26.8969 124.347 26.9118 124.456 26.9027C124.679 26.9095 124.901 26.8679 125.107 26.7807L125.18 27.0872C124.933 27.1906 124.667 27.2405 124.399 27.2337C124.242 27.2446 124.084 27.2212 123.937 27.1651C123.79 27.109 123.656 27.0215 123.546 26.9086C123.436 26.7958 123.352 26.6605 123.3 26.5119C123.248 26.3633 123.228 26.2051 123.243 26.0483C123.243 25.3376 123.661 24.7788 124.345 24.7788C125.112 24.7788 125.316 25.4542 125.316 25.8882C125.32 25.9542 125.32 26.0203 125.316 26.0863L123.642 26.089ZM124.895 25.7824C124.908 25.697 124.902 25.61 124.878 25.5271C124.854 25.4442 124.812 25.3673 124.756 25.3016C124.7 25.2359 124.631 25.1829 124.553 25.1461C124.475 25.1092 124.39 25.0895 124.304 25.088C124.127 25.1009 123.962 25.1793 123.841 25.3078C123.719 25.4363 123.65 25.6056 123.647 25.7824H124.895Z" fill="black"/>
<path d="M125.841 25.5689C125.841 25.2976 125.841 25.0535 125.822 24.8365H126.197L126.21 25.2976H126.229C126.27 25.1539 126.355 25.0267 126.473 24.9342C126.59 24.8417 126.734 24.7885 126.883 24.7823C126.923 24.7818 126.963 24.7873 127.002 24.7985V25.2C126.955 25.1908 126.907 25.1863 126.858 25.1864C126.713 25.1917 126.575 25.2496 126.469 25.3495C126.363 25.4493 126.297 25.5841 126.283 25.7289C126.272 25.7953 126.266 25.8624 126.264 25.9297V27.1829H125.841V25.5689Z" fill="black"/>
<path d="M127.617 26.089C127.608 26.1981 127.623 26.3079 127.661 26.4108C127.699 26.5136 127.758 26.607 127.836 26.6844C127.913 26.7619 128.006 26.8215 128.109 26.8592C128.212 26.8969 128.322 26.9118 128.431 26.9027C128.654 26.9095 128.876 26.8679 129.082 26.7807L129.155 27.0872C128.908 27.1906 128.642 27.2405 128.374 27.2337C128.217 27.245 128.059 27.2219 127.911 27.166C127.764 27.1101 127.63 27.0226 127.52 26.9098C127.41 26.7969 127.325 26.6614 127.273 26.5126C127.22 26.3638 127.201 26.2053 127.216 26.0483C127.216 25.3376 127.636 24.7788 128.32 24.7788C129.088 24.7788 129.291 25.4542 129.291 25.8882C129.295 25.9542 129.295 26.0203 129.291 26.0863L127.617 26.089ZM128.871 25.7825C128.883 25.697 128.877 25.61 128.853 25.5271C128.829 25.4442 128.788 25.3673 128.732 25.3016C128.676 25.2359 128.607 25.1829 128.529 25.1461C128.45 25.1092 128.365 25.0895 128.279 25.088C128.103 25.1009 127.938 25.1793 127.816 25.3078C127.695 25.4363 127.626 25.6056 127.623 25.7825H128.871Z" fill="black"/>
<path d="M131.85 23.7378V26.5805C131.85 26.7894 131.85 27.0281 131.869 27.1881H131.484L131.465 26.7786C131.387 26.9252 131.269 27.0466 131.125 27.1288C130.981 27.2109 130.817 27.2503 130.651 27.2424C130.084 27.2424 129.645 26.7596 129.645 26.0462C129.645 25.265 130.127 24.7821 130.7 24.7821C130.839 24.7738 130.979 24.8028 131.104 24.8662C131.229 24.9296 131.335 25.0251 131.41 25.1429V23.7378H131.85ZM131.421 25.7939C131.422 25.7337 131.415 25.6736 131.402 25.6149C131.372 25.4735 131.294 25.3469 131.182 25.2564C131.069 25.1659 130.928 25.1172 130.784 25.1185C130.342 25.1185 130.081 25.5064 130.081 26.0272C130.081 26.5019 130.315 26.8952 130.776 26.8952C130.923 26.8951 131.065 26.8444 131.18 26.7515C131.294 26.6587 131.372 26.5293 131.402 26.3852C131.416 26.3247 131.422 26.2628 131.421 26.2008V25.7939Z" fill="black"/>
<path d="M133.561 27.1881C133.561 27.0281 133.58 26.7894 133.58 26.5805V23.7378H134.003V25.2161C134.085 25.0755 134.204 24.9604 134.348 24.8838C134.492 24.8072 134.654 24.772 134.816 24.7821C135.4 24.7821 135.812 25.2677 135.807 25.9838C135.807 26.8247 135.264 27.2424 134.751 27.2424C134.592 27.2507 134.433 27.2136 134.294 27.1353C134.155 27.0571 134.041 26.9409 133.965 26.8003L133.946 27.1881H133.561ZM134.003 26.2442C134.003 26.2972 134.01 26.3499 134.022 26.4015C134.057 26.5442 134.14 26.6709 134.256 26.7613C134.372 26.8517 134.515 26.9008 134.662 26.9006C135.109 26.9006 135.375 26.5371 135.375 25.9973C135.375 25.5254 135.134 25.1239 134.678 25.1239C134.527 25.1263 134.38 25.1791 134.262 25.2738C134.143 25.3686 134.06 25.5 134.024 25.6474C134.012 25.7054 134.005 25.7644 134.003 25.8237V26.2442Z" fill="black"/>
<path d="M136.474 24.8363L136.99 26.2251C137.044 26.3824 137.101 26.5669 137.142 26.7079C137.185 26.5669 137.234 26.3851 137.293 26.2169L137.76 24.8363H138.21L137.57 26.5126C137.264 27.3264 137.055 27.7333 136.756 27.9855C136.608 28.1196 136.428 28.213 136.233 28.2568L136.124 27.896C136.262 27.8528 136.39 27.7817 136.499 27.6871C136.654 27.5587 136.777 27.3963 136.859 27.2124C136.877 27.1803 136.889 27.1455 136.895 27.1094C136.89 27.0711 136.88 27.0336 136.865 26.9982L135.994 24.8281L136.474 24.8363Z" fill="black"/>
</g>
<defs>
<clipPath id="clip0_174_64">
<rect width="162" height="46" fill="white"/>
</clipPath>
</defs>
</svg>
